<svg xmlns="http://www.w3.org/2000/svg" xmlns:xlink="http://www.w3.org/1999/xlink" width="1920" zoomAndPan="magnify" viewBox="0 0 1440 809.999993" height="1080" preserveAspectRatio="xMidYMid meet" version="1.0"><defs><g/><linearGradient x1="0.923626" gradientTransform="matrix(2625.000177, 0, 0, 2625.000177, -984.519335, -1484.031187)" y1="0.5" x2="0.375055" gradientUnits="userSpaceOnUse" y2="0.5" id="a4d27eba55"><stop stop-opacity="1" stop-color="rgb(7.637024%, 1.46637%, 1.46637%)" offset="0"/><stop stop-opacity="1" stop-color="rgb(7.850647%, 1.506042%, 1.506042%)" offset="0.00390625"/><stop stop-opacity="1" stop-color="rgb(8.065796%, 1.547241%, 1.547241%)" offset="0.0078125"/><stop stop-opacity="1" stop-color="rgb(8.279419%, 1.58844%, 1.58844%)" offset="0.0117188"/><stop stop-opacity="1" stop-color="rgb(8.493042%, 1.629639%, 1.629639%)" offset="0.015625"/><stop stop-opacity="1" stop-color="rgb(8.706665%, 1.670837%, 1.670837%)" offset="0.0195312"/><stop stop-opacity="1" stop-color="rgb(8.921814%, 1.712036%, 1.712036%)" offset="0.0234375"/><stop stop-opacity="1" stop-color="rgb(9.135437%, 1.753235%, 1.753235%)" offset="0.0273437"/><stop stop-opacity="1" stop-color="rgb(9.350586%, 1.794434%, 1.794434%)" offset="0.03125"/><stop stop-opacity="1" stop-color="rgb(9.564209%, 1.835632%, 1.835632%)" offset="0.0351563"/><stop stop-opacity="1" stop-color="rgb(9.779358%, 1.876831%, 1.876831%)" offset="0.0390625"/><stop stop-opacity="1" stop-color="rgb(9.992981%, 1.91803%, 1.91803%)" offset="0.0429688"/><stop stop-opacity="1" stop-color="rgb(10.20813%, 1.959229%, 1.959229%)" offset="0.046875"/><stop stop-opacity="1" stop-color="rgb(10.421753%, 2.000427%, 2.000427%)" offset="0.0507812"/><stop stop-opacity="1" stop-color="rgb(10.636902%, 2.041626%, 2.041626%)" offset="0.0546875"/><stop stop-opacity="1" stop-color="rgb(10.850525%, 2.082825%, 2.082825%)" offset="0.0585938"/><stop stop-opacity="1" stop-color="rgb(11.065674%, 2.124023%, 2.124023%)" offset="0.0625"/><stop stop-opacity="1" stop-color="rgb(11.279297%, 2.165222%, 2.165222%)" offset="0.0664063"/><stop stop-opacity="1" stop-color="rgb(11.494446%, 2.206421%, 2.206421%)" offset="0.0703125"/><stop stop-opacity="1" stop-color="rgb(11.708069%, 2.24762%, 2.24762%)" offset="0.0742188"/><stop stop-opacity="1" stop-color="rgb(11.921692%, 2.288818%, 2.288818%)" offset="0.078125"/><stop stop-opacity="1" stop-color="rgb(12.135315%, 2.330017%, 2.330017%)" offset="0.0820313"/><stop stop-opacity="1" stop-color="rgb(12.350464%, 2.371216%, 2.371216%)" offset="0.0859375"/><stop stop-opacity="1" stop-color="rgb(12.564087%, 2.412415%, 2.412415%)" offset="0.0898438"/><stop stop-opacity="1" stop-color="rgb(12.779236%, 2.453613%, 2.453613%)" offset="0.09375"/><stop stop-opacity="1" stop-color="rgb(12.992859%, 2.494812%, 2.494812%)" offset="0.0976563"/><stop stop-opacity="1" stop-color="rgb(13.208008%, 2.536011%, 2.536011%)" offset="0.101562"/><stop stop-opacity="1" stop-color="rgb(13.421631%, 2.575684%, 2.575684%)" offset="0.105469"/><stop stop-opacity="1" stop-color="rgb(13.63678%, 2.616882%, 2.616882%)" offset="0.109375"/><stop stop-opacity="1" stop-color="rgb(13.850403%, 2.658081%, 2.658081%)" offset="0.113281"/><stop stop-opacity="1" stop-color="rgb(14.065552%, 2.69928%, 2.69928%)" offset="0.117188"/><stop stop-opacity="1" stop-color="rgb(14.279175%, 2.740479%, 2.740479%)" offset="0.121094"/><stop stop-opacity="1" stop-color="rgb(14.494324%, 2.781677%, 2.781677%)" offset="0.125"/><stop stop-opacity="1" stop-color="rgb(14.707947%, 2.822876%, 2.822876%)" offset="0.128906"/><stop stop-opacity="1" stop-color="rgb(14.92157%, 2.864075%, 2.864075%)" offset="0.132812"/><stop stop-opacity="1" stop-color="rgb(15.135193%, 2.905273%, 2.905273%)" offset="0.136719"/><stop stop-opacity="1" stop-color="rgb(15.350342%, 2.946472%, 2.946472%)" offset="0.140625"/><stop stop-opacity="1" stop-color="rgb(15.563965%, 2.987671%, 2.987671%)" offset="0.144531"/><stop stop-opacity="1" stop-color="rgb(15.779114%, 3.02887%, 3.02887%)" offset="0.148438"/><stop stop-opacity="1" stop-color="rgb(15.992737%, 3.070068%, 3.070068%)" offset="0.152344"/><stop stop-opacity="1" stop-color="rgb(16.207886%, 3.111267%, 3.111267%)" offset="0.15625"/><stop stop-opacity="1" stop-color="rgb(16.421509%, 3.152466%, 3.152466%)" offset="0.160156"/><stop stop-opacity="1" stop-color="rgb(16.636658%, 3.193665%, 3.193665%)" offset="0.164062"/><stop stop-opacity="1" stop-color="rgb(16.850281%, 3.234863%, 3.234863%)" offset="0.167969"/><stop stop-opacity="1" stop-color="rgb(17.06543%, 3.276062%, 3.276062%)" offset="0.171875"/><stop stop-opacity="1" stop-color="rgb(17.279053%, 3.317261%, 3.317261%)" offset="0.175781"/><stop stop-opacity="1" stop-color="rgb(17.494202%, 3.358459%, 3.358459%)" offset="0.179687"/><stop stop-opacity="1" stop-color="rgb(17.707825%, 3.399658%, 3.399658%)" offset="0.183594"/><stop stop-opacity="1" stop-color="rgb(17.922974%, 3.440857%, 3.440857%)" offset="0.1875"/><stop stop-opacity="1" stop-color="rgb(18.136597%, 3.482056%, 3.482056%)" offset="0.191406"/><stop stop-opacity="1" stop-color="rgb(18.35022%, 3.523254%, 3.523254%)" offset="0.195313"/><stop stop-opacity="1" stop-color="rgb(18.563843%, 3.564453%, 3.564453%)" offset="0.199219"/><stop stop-opacity="1" stop-color="rgb(18.778992%, 3.605652%, 3.605652%)" offset="0.203125"/><stop stop-opacity="1" stop-color="rgb(18.992615%, 3.646851%, 3.646851%)" offset="0.207031"/><stop stop-opacity="1" stop-color="rgb(19.207764%, 3.688049%, 3.688049%)" offset="0.210938"/><stop stop-opacity="1" stop-color="rgb(19.421387%, 3.727722%, 3.727722%)" offset="0.214844"/><stop stop-opacity="1" stop-color="rgb(19.636536%, 3.768921%, 3.768921%)" offset="0.21875"/><stop stop-opacity="1" stop-color="rgb(19.850159%, 3.81012%, 3.81012%)" offset="0.222656"/><stop stop-opacity="1" stop-color="rgb(20.065308%, 3.851318%, 3.851318%)" offset="0.226562"/><stop stop-opacity="1" stop-color="rgb(20.278931%, 3.892517%, 3.892517%)" offset="0.230469"/><stop stop-opacity="1" stop-color="rgb(20.49408%, 3.933716%, 3.933716%)" offset="0.234375"/><stop stop-opacity="1" stop-color="rgb(20.707703%, 3.974915%, 3.974915%)" offset="0.238281"/><stop stop-opacity="1" stop-color="rgb(20.922852%, 4.016113%, 4.016113%)" offset="0.242188"/><stop stop-opacity="1" stop-color="rgb(21.136475%, 4.057312%, 4.057312%)" offset="0.246094"/><stop stop-opacity="1" stop-color="rgb(21.351624%, 4.098511%, 4.098511%)" offset="0.25"/><stop stop-opacity="1" stop-color="rgb(21.565247%, 4.139709%, 4.139709%)" offset="0.253906"/><stop stop-opacity="1" stop-color="rgb(21.77887%, 4.180908%, 4.180908%)" offset="0.257812"/><stop stop-opacity="1" stop-color="rgb(21.992493%, 4.222107%, 4.222107%)" offset="0.261719"/><stop stop-opacity="1" stop-color="rgb(22.207642%, 4.263306%, 4.263306%)" offset="0.265625"/><stop stop-opacity="1" stop-color="rgb(22.421265%, 4.304504%, 4.304504%)" offset="0.269531"/><stop stop-opacity="1" stop-color="rgb(22.636414%, 4.345703%, 4.345703%)" offset="0.273438"/><stop stop-opacity="1" stop-color="rgb(22.850037%, 4.386902%, 4.386902%)" offset="0.277344"/><stop stop-opacity="1" stop-color="rgb(23.065186%, 4.428101%, 4.428101%)" offset="0.28125"/><stop stop-opacity="1" stop-color="rgb(23.278809%, 4.469299%, 4.469299%)" offset="0.285156"/><stop stop-opacity="1" stop-color="rgb(23.493958%, 4.510498%, 4.510498%)" offset="0.289062"/><stop stop-opacity="1" stop-color="rgb(23.707581%, 4.551697%, 4.551697%)" offset="0.292969"/><stop stop-opacity="1" stop-color="rgb(23.922729%, 4.592896%, 4.592896%)" offset="0.296875"/><stop stop-opacity="1" stop-color="rgb(24.136353%, 4.634094%, 4.634094%)" offset="0.300781"/><stop stop-opacity="1" stop-color="rgb(24.351501%, 4.675293%, 4.675293%)" offset="0.304688"/><stop stop-opacity="1" stop-color="rgb(24.565125%, 4.716492%, 4.716492%)" offset="0.308594"/><stop stop-opacity="1" stop-color="rgb(24.778748%, 4.75769%, 4.75769%)" offset="0.3125"/><stop stop-opacity="1" stop-color="rgb(24.992371%, 4.798889%, 4.798889%)" offset="0.316406"/><stop stop-opacity="1" stop-color="rgb(25.20752%, 4.840088%, 4.840088%)" offset="0.320312"/><stop stop-opacity="1" stop-color="rgb(25.421143%, 4.879761%, 4.879761%)" offset="0.324219"/><stop stop-opacity="1" stop-color="rgb(25.636292%, 4.920959%, 4.920959%)" offset="0.328125"/><stop stop-opacity="1" stop-color="rgb(25.849915%, 4.962158%, 4.962158%)" offset="0.332031"/><stop stop-opacity="1" stop-color="rgb(26.065063%, 5.003357%, 5.003357%)" offset="0.335938"/><stop stop-opacity="1" stop-color="rgb(26.278687%, 5.044556%, 5.044556%)" offset="0.339844"/><stop stop-opacity="1" stop-color="rgb(26.493835%, 5.085754%, 5.085754%)" offset="0.34375"/><stop stop-opacity="1" stop-color="rgb(26.707458%, 5.126953%, 5.126953%)" offset="0.347656"/><stop stop-opacity="1" stop-color="rgb(26.922607%, 5.168152%, 5.168152%)" offset="0.351562"/><stop stop-opacity="1" stop-color="rgb(27.13623%, 5.209351%, 5.209351%)" offset="0.355469"/><stop stop-opacity="1" stop-color="rgb(27.351379%, 5.250549%, 5.250549%)" offset="0.359375"/><stop stop-opacity="1" stop-color="rgb(27.565002%, 5.291748%, 5.291748%)" offset="0.363281"/><stop stop-opacity="1" stop-color="rgb(27.780151%, 5.332947%, 5.332947%)" offset="0.367187"/><stop stop-opacity="1" stop-color="rgb(27.993774%, 5.374146%, 5.374146%)" offset="0.371094"/><stop stop-opacity="1" stop-color="rgb(28.207397%, 5.415344%, 5.415344%)" offset="0.375"/><stop stop-opacity="1" stop-color="rgb(28.421021%, 5.456543%, 5.456543%)" offset="0.378906"/><stop stop-opacity="1" stop-color="rgb(28.636169%, 5.497742%, 5.497742%)" offset="0.382813"/><stop stop-opacity="1" stop-color="rgb(28.849792%, 5.53894%, 5.53894%)" offset="0.386719"/><stop stop-opacity="1" stop-color="rgb(29.064941%, 5.580139%, 5.580139%)" offset="0.390625"/><stop stop-opacity="1" stop-color="rgb(29.278564%, 5.621338%, 5.621338%)" offset="0.394531"/><stop stop-opacity="1" stop-color="rgb(29.493713%, 5.662537%, 5.662537%)" offset="0.398438"/><stop stop-opacity="1" stop-color="rgb(29.707336%, 5.703735%, 5.703735%)" offset="0.402344"/><stop stop-opacity="1" stop-color="rgb(29.922485%, 5.744934%, 5.744934%)" offset="0.40625"/><stop stop-opacity="1" stop-color="rgb(30.136108%, 5.786133%, 5.786133%)" offset="0.410156"/><stop stop-opacity="1" stop-color="rgb(30.351257%, 5.827332%, 5.827332%)" offset="0.414062"/><stop stop-opacity="1" stop-color="rgb(30.56488%, 5.86853%, 5.86853%)" offset="0.417969"/><stop stop-opacity="1" stop-color="rgb(30.780029%, 5.909729%, 5.909729%)" offset="0.421875"/><stop stop-opacity="1" stop-color="rgb(30.993652%, 5.949402%, 5.949402%)" offset="0.425781"/><stop stop-opacity="1" stop-color="rgb(31.207275%, 5.990601%, 5.990601%)" offset="0.429688"/><stop stop-opacity="1" stop-color="rgb(31.420898%, 6.031799%, 6.031799%)" offset="0.433594"/><stop stop-opacity="1" stop-color="rgb(31.636047%, 6.072998%, 6.072998%)" offset="0.4375"/><stop stop-opacity="1" stop-color="rgb(31.84967%, 6.114197%, 6.114197%)" offset="0.441406"/><stop stop-opacity="1" stop-color="rgb(32.064819%, 6.155396%, 6.155396%)" offset="0.445312"/><stop stop-opacity="1" stop-color="rgb(32.278442%, 6.196594%, 6.196594%)" offset="0.449219"/><stop stop-opacity="1" stop-color="rgb(32.493591%, 6.237793%, 6.237793%)" offset="0.453125"/><stop stop-opacity="1" stop-color="rgb(32.707214%, 6.278992%, 6.278992%)" offset="0.457031"/><stop stop-opacity="1" stop-color="rgb(32.922363%, 6.32019%, 6.32019%)" offset="0.460937"/><stop stop-opacity="1" stop-color="rgb(33.135986%, 6.361389%, 6.361389%)" offset="0.464844"/><stop stop-opacity="1" stop-color="rgb(33.351135%, 6.402588%, 6.402588%)" offset="0.46875"/><stop stop-opacity="1" stop-color="rgb(33.564758%, 6.443787%, 6.443787%)" offset="0.472656"/><stop stop-opacity="1" stop-color="rgb(33.779907%, 6.484985%, 6.484985%)" offset="0.476563"/><stop stop-opacity="1" stop-color="rgb(33.99353%, 6.526184%, 6.526184%)" offset="0.480469"/><stop stop-opacity="1" stop-color="rgb(34.208679%, 6.567383%, 6.567383%)" offset="0.484375"/><stop stop-opacity="1" stop-color="rgb(34.422302%, 6.608582%, 6.608582%)" offset="0.488281"/><stop stop-opacity="1" stop-color="rgb(34.635925%, 6.64978%, 6.64978%)" offset="0.492188"/><stop stop-opacity="1" stop-color="rgb(34.849548%, 6.690979%, 6.690979%)" offset="0.496094"/><stop stop-opacity="1" stop-color="rgb(35.064697%, 6.732178%, 6.732178%)" offset="0.5"/><stop stop-opacity="1" stop-color="rgb(35.27832%, 6.773376%, 6.773376%)" offset="0.503906"/><stop stop-opacity="1" stop-color="rgb(35.493469%, 6.814575%, 6.814575%)" offset="0.507812"/><stop stop-opacity="1" stop-color="rgb(35.707092%, 6.855774%, 6.855774%)" offset="0.511719"/><stop stop-opacity="1" stop-color="rgb(35.922241%, 6.896973%, 6.896973%)" offset="0.515625"/><stop stop-opacity="1" stop-color="rgb(36.135864%, 6.938171%, 6.938171%)" offset="0.519531"/><stop stop-opacity="1" stop-color="rgb(36.351013%, 6.97937%, 6.97937%)" offset="0.523437"/><stop stop-opacity="1" stop-color="rgb(36.564636%, 7.020569%, 7.020569%)" offset="0.527344"/><stop stop-opacity="1" stop-color="rgb(36.779785%, 7.061768%, 7.061768%)" offset="0.53125"/><stop stop-opacity="1" stop-color="rgb(36.993408%, 7.10144%, 7.10144%)" offset="0.535156"/><stop stop-opacity="1" stop-color="rgb(37.208557%, 7.142639%, 7.142639%)" offset="0.539062"/><stop stop-opacity="1" stop-color="rgb(37.42218%, 7.183838%, 7.183838%)" offset="0.542969"/><stop stop-opacity="1" stop-color="rgb(37.637329%, 7.225037%, 7.225037%)" offset="0.546875"/><stop stop-opacity="1" stop-color="rgb(37.850952%, 7.266235%, 7.266235%)" offset="0.550781"/><stop stop-opacity="1" stop-color="rgb(38.064575%, 7.307434%, 7.307434%)" offset="0.554688"/><stop stop-opacity="1" stop-color="rgb(38.278198%, 7.348633%, 7.348633%)" offset="0.558594"/><stop stop-opacity="1" stop-color="rgb(38.493347%, 7.389832%, 7.389832%)" offset="0.5625"/><stop stop-opacity="1" stop-color="rgb(38.70697%, 7.43103%, 7.43103%)" offset="0.566406"/><stop stop-opacity="1" stop-color="rgb(38.922119%, 7.472229%, 7.472229%)" offset="0.570312"/><stop stop-opacity="1" stop-color="rgb(39.135742%, 7.513428%, 7.513428%)" offset="0.574219"/><stop stop-opacity="1" stop-color="rgb(39.350891%, 7.554626%, 7.554626%)" offset="0.578125"/><stop stop-opacity="1" stop-color="rgb(39.564514%, 7.595825%, 7.595825%)" offset="0.582031"/><stop stop-opacity="1" stop-color="rgb(39.779663%, 7.637024%, 7.637024%)" offset="0.585938"/><stop stop-opacity="1" stop-color="rgb(39.993286%, 7.678223%, 7.678223%)" offset="0.589844"/><stop stop-opacity="1" stop-color="rgb(40.208435%, 7.719421%, 7.719421%)" offset="0.59375"/><stop stop-opacity="1" stop-color="rgb(40.422058%, 7.76062%, 7.76062%)" offset="0.597656"/><stop stop-opacity="1" stop-color="rgb(40.637207%, 7.801819%, 7.801819%)" offset="0.601562"/><stop stop-opacity="1" stop-color="rgb(40.85083%, 7.843018%, 7.843018%)" offset="0.605469"/><stop stop-opacity="1" stop-color="rgb(41.064453%, 7.884216%, 7.884216%)" offset="0.609375"/><stop stop-opacity="1" stop-color="rgb(41.278076%, 7.925415%, 7.925415%)" offset="0.613281"/><stop stop-opacity="1" stop-color="rgb(41.493225%, 7.966614%, 7.966614%)" offset="0.617187"/><stop stop-opacity="1" stop-color="rgb(41.706848%, 8.007812%, 8.007812%)" offset="0.621094"/><stop stop-opacity="1" stop-color="rgb(41.921997%, 8.049011%, 8.049011%)" offset="0.625"/><stop stop-opacity="1" stop-color="rgb(42.13562%, 8.09021%, 8.09021%)" offset="0.628906"/><stop stop-opacity="1" stop-color="rgb(42.350769%, 8.131409%, 8.131409%)" offset="0.632813"/><stop stop-opacity="1" stop-color="rgb(42.564392%, 8.171082%, 8.171082%)" offset="0.636719"/><stop stop-opacity="1" stop-color="rgb(42.779541%, 8.21228%, 8.21228%)" offset="0.640625"/><stop stop-opacity="1" stop-color="rgb(42.993164%, 8.253479%, 8.253479%)" offset="0.644531"/><stop stop-opacity="1" stop-color="rgb(43.208313%, 8.294678%, 8.294678%)" offset="0.648438"/><stop stop-opacity="1" stop-color="rgb(43.421936%, 8.335876%, 8.335876%)" offset="0.652344"/><stop stop-opacity="1" stop-color="rgb(43.637085%, 8.377075%, 8.377075%)" offset="0.65625"/><stop stop-opacity="1" stop-color="rgb(43.850708%, 8.418274%, 8.418274%)" offset="0.660156"/><stop stop-opacity="1" stop-color="rgb(44.065857%, 8.459473%, 8.459473%)" offset="0.664062"/><stop stop-opacity="1" stop-color="rgb(44.27948%, 8.500671%, 8.500671%)" offset="0.667969"/><stop stop-opacity="1" stop-color="rgb(44.493103%, 8.54187%, 8.54187%)" offset="0.671875"/><stop stop-opacity="1" stop-color="rgb(44.706726%, 8.583069%, 8.583069%)" offset="0.675781"/><stop stop-opacity="1" stop-color="rgb(44.921875%, 8.624268%, 8.624268%)" offset="0.679688"/><stop stop-opacity="1" stop-color="rgb(45.135498%, 8.665466%, 8.665466%)" offset="0.683594"/><stop stop-opacity="1" stop-color="rgb(45.350647%, 8.706665%, 8.706665%)" offset="0.6875"/><stop stop-opacity="1" stop-color="rgb(45.56427%, 8.747864%, 8.747864%)" offset="0.691406"/><stop stop-opacity="1" stop-color="rgb(45.779419%, 8.789062%, 8.789062%)" offset="0.695312"/><stop stop-opacity="1" stop-color="rgb(45.993042%, 8.830261%, 8.830261%)" offset="0.699219"/><stop stop-opacity="1" stop-color="rgb(46.208191%, 8.87146%, 8.87146%)" offset="0.703125"/><stop stop-opacity="1" stop-color="rgb(46.421814%, 8.912659%, 8.912659%)" offset="0.707031"/><stop stop-opacity="1" stop-color="rgb(46.636963%, 8.953857%, 8.953857%)" offset="0.710938"/><stop stop-opacity="1" stop-color="rgb(46.850586%, 8.995056%, 8.995056%)" offset="0.714844"/><stop stop-opacity="1" stop-color="rgb(47.065735%, 9.036255%, 9.036255%)" offset="0.71875"/><stop stop-opacity="1" stop-color="rgb(47.279358%, 9.077454%, 9.077454%)" offset="0.722656"/><stop stop-opacity="1" stop-color="rgb(47.492981%, 9.118652%, 9.118652%)" offset="0.726563"/><stop stop-opacity="1" stop-color="rgb(47.706604%, 9.159851%, 9.159851%)" offset="0.730469"/><stop stop-opacity="1" stop-color="rgb(47.921753%, 9.20105%, 9.20105%)" offset="0.734375"/><stop stop-opacity="1" stop-color="rgb(48.135376%, 9.242249%, 9.242249%)" offset="0.738281"/><stop stop-opacity="1" stop-color="rgb(48.350525%, 9.283447%, 9.283447%)" offset="0.742188"/><stop stop-opacity="1" stop-color="rgb(48.564148%, 9.32312%, 9.32312%)" offset="0.746094"/><stop stop-opacity="1" stop-color="rgb(48.779297%, 9.364319%, 9.364319%)" offset="0.75"/><stop stop-opacity="1" stop-color="rgb(48.99292%, 9.405518%, 9.405518%)" offset="0.753906"/><stop stop-opacity="1" stop-color="rgb(49.208069%, 9.446716%, 9.446716%)" offset="0.757812"/><stop stop-opacity="1" stop-color="rgb(49.421692%, 9.487915%, 9.487915%)" offset="0.761719"/><stop stop-opacity="1" stop-color="rgb(49.636841%, 9.529114%, 9.529114%)" offset="0.765625"/><stop stop-opacity="1" stop-color="rgb(49.850464%, 9.570312%, 9.570312%)" offset="0.769531"/><stop stop-opacity="1" stop-color="rgb(50.065613%, 9.611511%, 9.611511%)" offset="0.773438"/><stop stop-opacity="1" stop-color="rgb(50.279236%, 9.65271%, 9.65271%)" offset="0.777344"/><stop stop-opacity="1" stop-color="rgb(50.494385%, 9.693909%, 9.693909%)" offset="0.78125"/><stop stop-opacity="1" stop-color="rgb(50.708008%, 9.735107%, 9.735107%)" offset="0.785156"/><stop stop-opacity="1" stop-color="rgb(50.921631%, 9.776306%, 9.776306%)" offset="0.789062"/><stop stop-opacity="1" stop-color="rgb(51.135254%, 9.817505%, 9.817505%)" offset="0.792969"/><stop stop-opacity="1" stop-color="rgb(51.350403%, 9.858704%, 9.858704%)" offset="0.796875"/><stop stop-opacity="1" stop-color="rgb(51.564026%, 9.899902%, 9.899902%)" offset="0.800781"/><stop stop-opacity="1" stop-color="rgb(51.779175%, 9.941101%, 9.941101%)" offset="0.804688"/><stop stop-opacity="1" stop-color="rgb(51.992798%, 9.9823%, 9.9823%)" offset="0.808594"/><stop stop-opacity="1" stop-color="rgb(52.207947%, 10.023499%, 10.023499%)" offset="0.8125"/><stop stop-opacity="1" stop-color="rgb(52.42157%, 10.064697%, 10.064697%)" offset="0.816406"/><stop stop-opacity="1" stop-color="rgb(52.636719%, 10.105896%, 10.105896%)" offset="0.820312"/><stop stop-opacity="1" stop-color="rgb(52.850342%, 10.147095%, 10.147095%)" offset="0.824219"/><stop stop-opacity="1" stop-color="rgb(53.065491%, 10.188293%, 10.188293%)" offset="0.828125"/><stop stop-opacity="1" stop-color="rgb(53.279114%, 10.229492%, 10.229492%)" offset="0.832031"/><stop stop-opacity="1" stop-color="rgb(53.494263%, 10.270691%, 10.270691%)" offset="0.835937"/><stop stop-opacity="1" stop-color="rgb(53.707886%, 10.31189%, 10.31189%)" offset="0.839844"/><stop stop-opacity="1" stop-color="rgb(53.923035%, 10.353088%, 10.353088%)" offset="0.84375"/><stop stop-opacity="1" stop-color="rgb(54.136658%, 10.394287%, 10.394287%)" offset="0.847656"/><stop stop-opacity="1" stop-color="rgb(54.350281%, 10.435486%, 10.435486%)" offset="0.851563"/><stop stop-opacity="1" stop-color="rgb(54.563904%, 10.475159%, 10.475159%)" offset="0.855469"/><stop stop-opacity="1" stop-color="rgb(54.779053%, 10.516357%, 10.516357%)" offset="0.859375"/><stop stop-opacity="1" stop-color="rgb(54.992676%, 10.557556%, 10.557556%)" offset="0.863281"/><stop stop-opacity="1" stop-color="rgb(55.207825%, 10.598755%, 10.598755%)" offset="0.867188"/><stop stop-opacity="1" stop-color="rgb(55.421448%, 10.639954%, 10.639954%)" offset="0.871094"/><stop stop-opacity="1" stop-color="rgb(55.636597%, 10.681152%, 10.681152%)" offset="0.875"/><stop stop-opacity="1" stop-color="rgb(55.85022%, 10.722351%, 10.722351%)" offset="0.878906"/><stop stop-opacity="1" stop-color="rgb(56.065369%, 10.76355%, 10.76355%)" offset="0.882813"/><stop stop-opacity="1" stop-color="rgb(56.278992%, 10.804749%, 10.804749%)" offset="0.886719"/><stop stop-opacity="1" stop-color="rgb(56.494141%, 10.845947%, 10.845947%)" offset="0.890625"/><stop stop-opacity="1" stop-color="rgb(56.707764%, 10.887146%, 10.887146%)" offset="0.894531"/><stop stop-opacity="1" stop-color="rgb(56.922913%, 10.928345%, 10.928345%)" offset="0.898438"/><stop stop-opacity="1" stop-color="rgb(57.136536%, 10.969543%, 10.969543%)" offset="0.902344"/><stop stop-opacity="1" stop-color="rgb(57.350159%, 11.010742%, 11.010742%)" offset="0.90625"/><stop stop-opacity="1" stop-color="rgb(57.563782%, 11.051941%, 11.051941%)" offset="0.910156"/><stop stop-opacity="1" stop-color="rgb(57.778931%, 11.09314%, 11.09314%)" offset="0.914062"/><stop stop-opacity="1" stop-color="rgb(57.992554%, 11.134338%, 11.134338%)" offset="0.917969"/><stop stop-opacity="1" stop-color="rgb(58.207703%, 11.175537%, 11.175537%)" offset="0.921875"/><stop stop-opacity="1" stop-color="rgb(58.421326%, 11.216736%, 11.216736%)" offset="0.925781"/><stop stop-opacity="1" stop-color="rgb(58.636475%, 11.257935%, 11.257935%)" offset="0.929687"/><stop stop-opacity="1" stop-color="rgb(58.850098%, 11.299133%, 11.299133%)" offset="0.933594"/><stop stop-opacity="1" stop-color="rgb(59.065247%, 11.340332%, 11.340332%)" offset="0.9375"/><stop stop-opacity="1" stop-color="rgb(59.27887%, 11.381531%, 11.381531%)" offset="0.941406"/><stop stop-opacity="1" stop-color="rgb(59.494019%, 11.422729%, 11.422729%)" offset="0.945313"/><stop stop-opacity="1" stop-color="rgb(59.707642%, 11.463928%, 11.463928%)" offset="0.949219"/><stop stop-opacity="1" stop-color="rgb(59.922791%, 11.505127%, 11.505127%)" offset="0.953125"/><stop stop-opacity="1" stop-color="rgb(60.136414%, 11.5448%, 11.5448%)" offset="0.957031"/><stop stop-opacity="1" stop-color="rgb(60.351562%, 11.585999%, 11.585999%)" offset="0.960938"/><stop stop-opacity="1" stop-color="rgb(60.565186%, 11.627197%, 11.627197%)" offset="0.964844"/><stop stop-opacity="1" stop-color="rgb(60.778809%, 11.668396%, 11.668396%)" offset="0.96875"/><stop stop-opacity="1" stop-color="rgb(60.992432%, 11.709595%, 11.709595%)" offset="0.972656"/><stop stop-opacity="1" stop-color="rgb(61.207581%, 11.750793%, 11.750793%)" offset="0.976563"/><stop stop-opacity="1" stop-color="rgb(61.421204%, 11.791992%, 11.791992%)" offset="0.980469"/><stop stop-opacity="1" stop-color="rgb(61.636353%, 11.833191%, 11.833191%)" offset="0.984375"/><stop stop-opacity="1" stop-color="rgb(61.849976%, 11.87439%, 11.87439%)" offset="0.988281"/><stop stop-opacity="1" stop-color="rgb(62.065125%, 11.915588%, 11.915588%)" offset="0.992188"/><stop stop-opacity="1" stop-color="rgb(62.278748%, 11.956787%, 11.956787%)" offset="0.996094"/><stop stop-opacity="1" stop-color="rgb(62.493896%, 11.997986%, 11.997986%)" offset="1"/></linearGradient><clipPath id="e3922838fe"><path d="M 602.070312 245.527344 L 836.246094 245.527344 L 836.246094 565.210938 L 602.070312 565.210938 Z M 602.070312 245.527344 " clip-rule="nonzero"/></clipPath><clipPath id="0a03db2a44"><path d="M 602.070312 275 L 832 275 L 832 565.210938 L 602.070312 565.210938 Z M 602.070312 275 " clip-rule="nonzero"/></clipPath><clipPath id="7d1bca1faa"><path d="M 633 449 L 807 449 L 807 497.945312 L 633 497.945312 Z M 633 449 " clip-rule="nonzero"/></clipPath><clipPath id="e79472e49a"><path d="M 646 398.042969 L 773 398.042969 L 773 479 L 646 479 Z M 646 398.042969 " clip-rule="nonzero"/></clipPath></defs><rect x="-144" width="1728" fill="#ffffff" y="-80.999999" height="971.999992" fill-opacity="1"/><rect x="-144" width="1728" fill="#ffffff" y="-80.999999" height="971.999992" fill-opacity="1"/><rect x="-144" fill="url(#a4d27eba55)" width="1728" y="-80.999999" height="971.999992"/><g clip-path="url(#e3922838fe)"><path fill="#ffffff" d="M 745.191406 245.53125 C 679.347656 274.324219 634.371094 326.1875 614.078125 379.367188 C 583.585938 459.265625 610.300781 552.371094 704.152344 564.425781 C 790.230469 575.480469 877.019531 476.570312 815.53125 377.339844 C 796.304688 346.320312 763.777344 323.789062 748.917969 291.078125 C 742.53125 277.027344 740.433594 262.25 745.191406 245.53125 " fill-opacity="1" fill-rule="evenodd"/></g><g clip-path="url(#0a03db2a44)"><path fill="#ffffff" d="M 831.238281 479.269531 C 820.335938 406.988281 734.066406 431.804688 684.371094 457.234375 C 653.804688 472.878906 631.144531 450.351562 629.175781 406.617188 C 626.703125 351.476562 678.296875 288.972656 693.734375 275.523438 C 655.5625 304.214844 628.542969 341.457031 614.078125 379.367188 C 583.585938 459.265625 610.300781 552.371094 704.152344 564.425781 C 759.246094 571.5 814.621094 533.535156 831.238281 479.269531 " fill-opacity="1" fill-rule="evenodd"/></g><path fill="#ffffff" d="M 735.507812 478.78125 C 706.4375 491.328125 688.589844 516.417969 695.652344 534.804688 C 702.710938 553.199219 732.003906 557.925781 761.074219 545.378906 C 790.148438 532.824219 807.992188 507.742188 800.933594 489.351562 C 793.875 470.960938 764.578125 466.226562 735.507812 478.78125 " fill-opacity="1" fill-rule="evenodd"/><g clip-path="url(#7d1bca1faa)"><path fill="#ffffff" d="M 644.429688 497.945312 C 630.019531 497.945312 630.019531 475.523438 644.429688 475.523438 C 658.839844 475.523438 658.839844 497.945312 644.429688 497.945312 Z M 795.261719 449.746094 C 780.847656 449.746094 780.847656 472.164062 795.261719 472.164062 C 809.671875 472.164062 809.667969 449.746094 795.261719 449.746094 Z M 795.261719 449.746094 " fill-opacity="1" fill-rule="nonzero"/></g><g clip-path="url(#e79472e49a)"><path fill="#1d1d1b" d="M 669.007812 460.953125 L 669.007812 462.078125 C 669.007812 470.746094 655.597656 470.746094 655.597656 462.078125 L 655.597656 460.953125 C 655.597656 452.28125 669.007812 452.28125 669.007812 460.953125 Z M 766.210938 437.414062 L 765.09375 437.414062 C 756.445312 437.414062 756.445312 450.863281 765.09375 450.863281 L 766.210938 450.863281 C 774.855469 450.863281 774.855469 437.414062 766.210938 437.414062 Z M 734.464844 464.96875 C 725.265625 476.453125 708.277344 476.265625 697.402344 467.21875 C 695.203125 465.382812 692.019531 468.535156 694.242188 470.386719 C 706.820312 480.859375 726.820312 481.625 737.625 468.140625 C 739.410156 465.914062 736.269531 462.71875 734.464844 464.96875 Z M 659.542969 430.605469 C 662.378906 430.144531 661.171875 425.824219 658.359375 426.28125 C 651.582031 427.382812 645.109375 432.742188 646.742188 440.25 C 647.351562 443.082031 651.664062 441.875 651.046875 439.0625 C 649.949219 434 655.476562 431.269531 659.542969 430.605469 Z M 760.617188 405.683594 C 761.699219 405.175781 762.476562 403.882812 761.804688 402.507812 C 760.292969 399.226562 757.386719 398.035156 754.023438 399.316406 C 752.5625 399.875 752.234375 401.304688 752.660156 402.433594 C 752.671875 402.460938 752.683594 402.488281 752.695312 402.519531 C 753.167969 403.636719 754.429688 404.503906 755.910156 403.9375 C 756.722656 403.628906 756.871094 403.691406 757.242188 404.492188 C 757.925781 405.964844 759.488281 406.207031 760.613281 405.683594 Z M 760.617188 405.683594 " fill-opacity="1" fill-rule="nonzero"/></g><g fill="#ffffff" fill-opacity="1"><g transform="translate(597.873876, 645.164543)"><g><path d="M 35.175781 -43.699219 C 36.160156 -43.699219 36.984375 -43.546875 37.648438 -43.238281 C 38.3125 -42.925781 38.851562 -42.53125 39.265625 -42.050781 C 39.679688 -41.570312 39.976562 -41.046875 40.160156 -40.484375 C 40.34375 -39.925781 40.445312 -39.390625 40.46875 -38.886719 C 40.5625 -37.121094 40.222656 -35.398438 39.453125 -33.710938 C 38.6875 -32.027344 37.671875 -30.464844 36.410156 -29.019531 C 35.152344 -27.574219 33.722656 -26.308594 32.132812 -25.21875 C 30.539062 -24.132812 28.949219 -23.324219 27.367188 -22.796875 C 28.421875 -22.40625 29.496094 -22.109375 30.582031 -21.902344 C 31.671875 -21.695312 32.753906 -21.582031 33.832031 -21.558594 C 35.414062 -23.78125 37.003906 -26.011719 38.59375 -28.246094 C 40.1875 -30.480469 41.746094 -32.601562 43.269531 -34.605469 C 44.796875 -36.613281 46.269531 -38.46875 47.691406 -40.175781 C 49.109375 -41.882812 50.441406 -43.347656 51.679688 -44.5625 C 52.847656 -45.683594 54.128906 -46.457031 55.527344 -46.882812 C 56.925781 -47.304688 58.246094 -47.378906 59.484375 -47.105469 C 60.722656 -46.828125 61.765625 -46.199219 62.613281 -45.214844 C 63.460938 -44.226562 63.917969 -42.863281 63.988281 -41.121094 C 64.03125 -39.65625 63.722656 -38.175781 63.058594 -36.6875 C 62.394531 -35.195312 61.460938 -33.746094 60.257812 -32.335938 C 59.054688 -30.929688 57.644531 -29.582031 56.027344 -28.296875 C 54.410156 -27.015625 52.679688 -25.84375 50.835938 -24.789062 C 48.992188 -23.734375 47.082031 -22.824219 45.109375 -22.058594 C 43.140625 -21.289062 41.214844 -20.722656 39.335938 -20.355469 C 37.339844 -17.558594 35.304688 -14.820312 33.230469 -12.136719 C 31.15625 -9.457031 29.078125 -7.015625 26.992188 -4.8125 C 28.230469 -3.988281 29.53125 -3.226562 30.894531 -2.527344 C 32.257812 -1.828125 33.667969 -1.289062 35.121094 -0.910156 C 36.578125 -0.53125 38.078125 -0.371094 39.625 -0.429688 C 41.175781 -0.488281 42.753906 -0.855469 44.371094 -1.53125 C 45.988281 -2.207031 47.636719 -3.242188 49.324219 -4.640625 C 51.007812 -6.039062 52.710938 -7.90625 54.429688 -10.246094 C 54.566406 -10.339844 54.648438 -10.21875 54.667969 -9.886719 C 54.691406 -9.554688 54.65625 -9.089844 54.566406 -8.492188 C 54.472656 -7.898438 54.332031 -7.214844 54.136719 -6.445312 C 53.941406 -5.679688 53.683594 -4.917969 53.363281 -4.160156 C 53.042969 -3.402344 52.667969 -2.691406 52.246094 -2.027344 C 51.820312 -1.363281 51.34375 -0.835938 50.820312 -0.445312 C 48.9375 0.929688 47.144531 1.941406 45.4375 2.597656 C 43.730469 3.25 42.089844 3.628906 40.519531 3.730469 C 38.949219 3.832031 37.453125 3.714844 36.035156 3.371094 C 34.613281 3.027344 33.265625 2.539062 31.992188 1.910156 C 30.722656 1.277344 29.507812 0.539062 28.347656 -0.308594 C 27.191406 -1.15625 26.097656 -2.015625 25.066406 -2.886719 C 23.070312 -0.960938 21.121094 0.578125 19.21875 1.738281 C 17.316406 2.894531 15.484375 3.519531 13.71875 3.609375 C 12.023438 3.679688 10.453125 3.476562 9.007812 3.007812 C 7.5625 2.539062 6.296875 1.910156 5.210938 1.117188 C 4.121094 0.328125 3.226562 -0.574219 2.527344 -1.582031 C 1.828125 -2.589844 1.375 -3.597656 1.167969 -4.605469 C 1.007812 -5.433594 0.96875 -6.1875 1.046875 -6.875 C 1.128906 -7.5625 1.316406 -8.167969 1.617188 -8.683594 C 1.914062 -9.199219 2.304688 -9.605469 2.785156 -9.902344 C 3.265625 -10.199219 3.839844 -10.359375 4.503906 -10.382812 C 5.398438 -10.40625 6.207031 -10.246094 6.929688 -9.902344 C 7.648438 -9.558594 8.285156 -9.128906 8.835938 -8.613281 C 9.386719 -8.097656 9.863281 -7.558594 10.261719 -6.996094 C 10.664062 -6.433594 11.003906 -5.972656 11.277344 -5.605469 C 11.09375 -6.109375 11.089844 -6.691406 11.261719 -7.359375 C 11.433594 -8.023438 11.71875 -8.660156 12.121094 -9.265625 C 12.519531 -9.875 13.003906 -10.402344 13.5625 -10.847656 C 14.125 -11.292969 14.703125 -11.574219 15.300781 -11.691406 C 15.78125 -11.78125 16.308594 -11.726562 16.882812 -11.519531 C 17.457031 -11.3125 18.078125 -11.007812 18.757812 -10.605469 C 19.433594 -10.207031 20.15625 -9.726562 20.921875 -9.164062 C 21.691406 -8.601562 22.5 -8.011719 23.347656 -7.390625 C 24.8125 -9.203125 26.324219 -11.179688 27.886719 -13.324219 C 29.445312 -15.464844 31.046875 -17.683594 32.699219 -19.976562 C 31.390625 -20.113281 30.039062 -20.367188 28.640625 -20.734375 C 27.242188 -21.101562 25.855469 -21.582031 24.480469 -22.175781 C 24.320312 -22.152344 24.164062 -22.144531 24.015625 -22.144531 C 23.867188 -22.144531 23.714844 -22.144531 23.550781 -22.144531 C 22.429688 -22.164062 21.324219 -22.296875 20.234375 -22.539062 C 19.144531 -22.777344 18.136719 -23.089844 17.207031 -23.464844 C 16.28125 -23.84375 15.476562 -24.285156 14.800781 -24.789062 C 14.125 -25.292969 13.648438 -25.832031 13.375 -26.40625 C 13.261719 -26.660156 13.253906 -26.820312 13.359375 -26.886719 C 13.460938 -26.957031 13.558594 -26.933594 13.648438 -26.820312 C 13.972656 -26.382812 14.429688 -25.980469 15.027344 -25.617188 C 15.621094 -25.25 16.292969 -24.917969 17.035156 -24.617188 C 17.78125 -24.320312 18.574219 -24.074219 19.410156 -23.878906 C 20.246094 -23.683594 21.078125 -23.542969 21.902344 -23.449219 C 20.894531 -24.023438 19.949219 -24.671875 19.066406 -25.390625 C 18.183594 -26.113281 17.398438 -26.90625 16.710938 -27.765625 C 16.023438 -28.625 15.457031 -29.550781 15.007812 -30.550781 C 14.5625 -31.546875 14.269531 -32.617188 14.132812 -33.765625 C 14.015625 -34.660156 14.089844 -35.5 14.355469 -36.292969 C 14.617188 -37.082031 15.015625 -37.769531 15.542969 -38.355469 C 16.070312 -38.9375 16.710938 -39.386719 17.464844 -39.695312 C 18.222656 -40.003906 19.035156 -40.148438 19.90625 -40.125 C 20.777344 -40.101562 21.558594 -39.875 22.246094 -39.4375 C 22.933594 -39.003906 23.546875 -38.488281 24.085938 -37.890625 C 24.625 -37.292969 25.09375 -36.675781 25.496094 -36.035156 C 25.894531 -35.390625 26.246094 -34.851562 26.542969 -34.417969 C 26.476562 -34.625 26.480469 -34.996094 26.5625 -35.535156 C 26.640625 -36.074219 26.800781 -36.6875 27.042969 -37.375 C 27.28125 -38.0625 27.621094 -38.777344 28.058594 -39.523438 C 28.492188 -40.269531 29.035156 -40.949219 29.691406 -41.570312 C 30.34375 -42.1875 31.121094 -42.699219 32.027344 -43.097656 C 32.933594 -43.5 33.980469 -43.699219 35.175781 -43.699219 Z M 37.375 -36.789062 C 37.375 -37.042969 37.316406 -37.359375 37.203125 -37.734375 C 37.089844 -38.113281 36.894531 -38.480469 36.617188 -38.835938 C 36.34375 -39.191406 35.976562 -39.484375 35.519531 -39.710938 C 35.058594 -39.941406 34.496094 -40.035156 33.832031 -39.988281 C 32.59375 -39.894531 31.582031 -39.539062 30.789062 -38.921875 C 30 -38.304688 29.351562 -37.539062 28.847656 -36.636719 C 28.34375 -35.730469 27.949219 -34.746094 27.660156 -33.679688 C 27.375 -32.613281 27.128906 -31.597656 26.921875 -30.636719 C 26.28125 -31.734375 25.628906 -32.710938 24.960938 -33.558594 C 24.664062 -33.925781 24.355469 -34.273438 24.035156 -34.605469 C 23.714844 -34.9375 23.378906 -35.238281 23.035156 -35.5 C 22.691406 -35.765625 22.34375 -35.964844 21.988281 -36.101562 C 21.632812 -36.238281 21.285156 -36.296875 20.9375 -36.273438 C 20.230469 -36.207031 19.679688 -36.027344 19.289062 -35.742188 C 18.898438 -35.453125 18.605469 -35.121094 18.414062 -34.746094 C 18.21875 -34.367188 18.101562 -33.992188 18.070312 -33.625 C 18.035156 -33.261719 18.027344 -32.960938 18.050781 -32.734375 C 18.121094 -31.746094 18.355469 -30.8125 18.757812 -29.929688 C 19.15625 -29.046875 19.683594 -28.222656 20.335938 -27.453125 C 20.992188 -26.6875 21.746094 -25.980469 22.605469 -25.339844 C 23.464844 -24.699219 24.402344 -24.136719 25.410156 -23.65625 C 26.257812 -23.863281 27.132812 -24.175781 28.039062 -24.601562 C 28.945312 -25.023438 29.839844 -25.542969 30.722656 -26.148438 C 31.605469 -26.757812 32.433594 -27.449219 33.214844 -28.230469 C 33.992188 -29.007812 34.6875 -29.851562 35.292969 -30.753906 C 35.902344 -31.660156 36.390625 -32.617188 36.753906 -33.625 C 37.121094 -34.636719 37.328125 -35.691406 37.375 -36.789062 Z M 60.207031 -40.710938 C 60.226562 -41.167969 60.160156 -41.558594 60 -41.878906 C 59.839844 -42.199219 59.644531 -42.46875 59.414062 -42.6875 C 59.183594 -42.90625 58.9375 -43.066406 58.675781 -43.167969 C 58.410156 -43.269531 58.175781 -43.324219 57.96875 -43.324219 C 57.238281 -43.347656 56.296875 -42.800781 55.152344 -41.691406 C 54.003906 -40.578125 52.710938 -39.078125 51.265625 -37.183594 C 49.820312 -35.292969 48.25 -33.117188 46.554688 -30.652344 C 44.859375 -28.1875 43.070312 -25.628906 41.191406 -22.96875 C 42.636719 -23.496094 44.109375 -24.148438 45.609375 -24.929688 C 47.109375 -25.707031 48.554688 -26.566406 49.941406 -27.507812 C 51.328125 -28.445312 52.636719 -29.453125 53.863281 -30.53125 C 55.085938 -31.609375 56.164062 -32.714844 57.09375 -33.851562 C 58.023438 -34.984375 58.761719 -36.132812 59.3125 -37.289062 C 59.859375 -38.445312 60.160156 -39.585938 60.207031 -40.710938 Z M 15.472656 -9.214844 C 14.992188 -9.121094 14.542969 -8.832031 14.132812 -8.339844 C 13.71875 -7.84375 13.386719 -7.273438 13.132812 -6.617188 C 12.882812 -5.964844 12.734375 -5.300781 12.6875 -4.625 C 12.640625 -3.949219 12.746094 -3.371094 12.996094 -2.886719 C 12.261719 -3.253906 11.535156 -3.730469 10.8125 -4.316406 C 10.089844 -4.898438 9.402344 -5.472656 8.75 -6.035156 C 8.097656 -6.597656 7.488281 -7.066406 6.929688 -7.445312 C 6.367188 -7.820312 5.890625 -7.988281 5.5 -7.941406 C 5.132812 -7.898438 4.855469 -7.78125 4.660156 -7.597656 C 4.464844 -7.414062 4.328125 -7.199219 4.246094 -6.945312 C 4.167969 -6.691406 4.132812 -6.425781 4.144531 -6.136719 C 4.15625 -5.851562 4.171875 -5.582031 4.195312 -5.328125 C 4.285156 -4.527344 4.660156 -3.707031 5.3125 -2.871094 C 5.964844 -2.035156 6.738281 -1.285156 7.632812 -0.617188 C 8.527344 0.046875 9.457031 0.589844 10.417969 1.015625 C 11.382812 1.4375 12.242188 1.640625 12.996094 1.617188 C 14.074219 1.570312 15.371094 0.894531 16.882812 -0.414062 C 18.394531 -1.71875 20.070312 -3.472656 21.902344 -5.671875 C 20.617188 -6.796875 19.445312 -7.707031 18.378906 -8.40625 C 17.3125 -9.105469 16.34375 -9.375 15.472656 -9.214844 Z M 15.472656 -9.214844 "/></g></g></g><g fill="#ffffff" fill-opacity="1"><g transform="translate(653.025049, 645.164543)"><g><path d="M 8.011719 -21.351562 C 8.332031 -21.488281 8.714844 -21.464844 9.164062 -21.285156 C 9.609375 -21.101562 10.015625 -20.824219 10.382812 -20.457031 C 10.75 -20.089844 11.015625 -19.667969 11.175781 -19.1875 C 11.335938 -18.703125 11.300781 -18.246094 11.070312 -17.808594 C 10.84375 -17.421875 10.429688 -16.785156 9.832031 -15.902344 C 9.238281 -15.019531 8.585938 -14.015625 7.875 -12.894531 C 7.164062 -11.769531 6.445312 -10.613281 5.726562 -9.421875 C 5.003906 -8.230469 4.402344 -7.140625 3.917969 -6.15625 C 3.4375 -5.167969 3.144531 -4.347656 3.042969 -3.695312 C 2.941406 -3.042969 3.140625 -2.703125 3.644531 -2.683594 L 4.089844 -2.683594 C 5.125 -2.980469 6.113281 -3.472656 7.066406 -4.160156 C 8.015625 -4.847656 8.921875 -5.632812 9.78125 -6.515625 C 10.640625 -7.398438 11.457031 -8.320312 12.222656 -9.285156 C 12.992188 -10.246094 13.71875 -11.164062 14.40625 -12.035156 C 14.542969 -12.171875 14.691406 -12.246094 14.855469 -12.257812 C 15.015625 -12.269531 15.152344 -12.234375 15.265625 -12.15625 C 15.378906 -12.074219 15.4375 -11.960938 15.4375 -11.8125 C 15.4375 -11.660156 15.359375 -11.484375 15.199219 -11.277344 C 14.53125 -10.359375 13.863281 -9.472656 13.1875 -8.613281 C 12.511719 -7.753906 11.8125 -6.929688 11.089844 -6.136719 C 10.367188 -5.347656 9.597656 -4.589844 8.785156 -3.867188 C 7.972656 -3.144531 7.105469 -2.453125 6.1875 -1.789062 C 5.960938 -1.628906 5.679688 -1.4375 5.347656 -1.21875 C 5.015625 -1.003906 4.640625 -0.796875 4.230469 -0.601562 C 3.816406 -0.40625 3.371094 -0.246094 2.886719 -0.121094 C 2.40625 0.00390625 1.925781 0.0703125 1.445312 0.0703125 C 0.871094 0.046875 0.417969 -0.121094 0.0859375 -0.429688 C -0.246094 -0.738281 -0.464844 -1.144531 -0.566406 -1.652344 C -0.671875 -2.15625 -0.675781 -2.734375 -0.585938 -3.386719 C -0.492188 -4.039062 -0.308594 -4.734375 -0.0351562 -5.46875 C 0.195312 -6.15625 0.515625 -6.921875 0.929688 -7.769531 C 1.339844 -8.617188 1.792969 -9.519531 2.285156 -10.46875 C 2.78125 -11.421875 3.296875 -12.390625 3.832031 -13.375 C 4.371094 -14.359375 4.898438 -15.328125 5.414062 -16.28125 C 5.929688 -17.230469 6.414062 -18.136719 6.859375 -18.996094 C 7.304688 -19.855469 7.691406 -20.640625 8.011719 -21.351562 Z M 10.519531 -27.988281 C 11.390625 -28.058594 12.035156 -27.875 12.445312 -27.4375 C 12.859375 -27.003906 12.972656 -26.417969 12.789062 -25.683594 C 13.113281 -26.121094 13.476562 -26.53125 13.890625 -26.921875 C 14.304688 -27.3125 14.722656 -27.644531 15.144531 -27.917969 C 15.570312 -28.195312 15.984375 -28.410156 16.382812 -28.574219 C 16.785156 -28.734375 17.144531 -28.8125 17.464844 -28.8125 C 17.902344 -28.859375 18.269531 -28.714844 18.566406 -28.382812 C 18.863281 -28.050781 18.96875 -27.679688 18.875 -27.265625 C 18.785156 -26.761719 18.550781 -26.316406 18.171875 -25.925781 C 17.792969 -25.535156 17.324219 -25.175781 16.761719 -24.84375 C 16.199219 -24.507812 15.585938 -24.207031 14.921875 -23.929688 C 14.257812 -23.65625 13.609375 -23.378906 12.980469 -23.105469 C 12.347656 -22.832031 11.765625 -22.550781 11.226562 -22.261719 C 10.6875 -21.976562 10.269531 -21.671875 9.972656 -21.351562 C 10.175781 -21.972656 10.195312 -22.46875 10.023438 -22.847656 C 9.851562 -23.226562 9.632812 -23.582031 9.371094 -23.914062 C 9.105469 -24.246094 8.875 -24.59375 8.683594 -24.960938 C 8.488281 -25.328125 8.457031 -25.808594 8.597656 -26.40625 C 8.664062 -26.75 8.871094 -27.089844 9.214844 -27.421875 C 9.558594 -27.753906 9.992188 -27.941406 10.519531 -27.988281 Z M 10.519531 -27.988281 "/></g></g></g><g fill="#ffffff" fill-opacity="1"><g transform="translate(664.2685, 645.164543)"><g><path d="M 12.996094 -21.351562 C 11.828125 -19.335938 10.722656 -17.464844 9.679688 -15.746094 C 8.636719 -14.027344 7.65625 -12.433594 6.738281 -10.96875 C 5.820312 -9.5 4.96875 -8.136719 4.175781 -6.875 C 3.386719 -5.617188 2.648438 -4.433594 1.960938 -3.335938 C 3.152344 -3.265625 4.285156 -3.535156 5.363281 -4.144531 C 6.441406 -4.75 7.449219 -5.519531 8.390625 -6.445312 C 9.328125 -7.375 10.21875 -8.382812 11.054688 -9.472656 C 11.890625 -10.5625 12.6875 -11.5625 13.445312 -12.480469 C 13.535156 -12.617188 13.660156 -12.699219 13.820312 -12.722656 C 13.984375 -12.746094 14.121094 -12.714844 14.234375 -12.636719 C 14.347656 -12.554688 14.421875 -12.433594 14.457031 -12.273438 C 14.492188 -12.113281 14.441406 -11.941406 14.304688 -11.757812 C 13.84375 -11.09375 13.445312 -10.511719 13.101562 -10.003906 C 12.757812 -9.5 12.414062 -9.019531 12.070312 -8.5625 C 11.726562 -8.101562 11.359375 -7.632812 10.96875 -7.152344 C 10.578125 -6.671875 10.109375 -6.132812 9.558594 -5.535156 C 9.078125 -5.007812 8.53125 -4.492188 7.925781 -3.988281 C 7.316406 -3.484375 6.675781 -3.046875 6 -2.683594 C 5.324219 -2.316406 4.625 -2.039062 3.902344 -1.855469 C 3.179688 -1.671875 2.476562 -1.652344 1.789062 -1.789062 C 1.972656 -1.488281 2.089844 -1.214844 2.148438 -0.960938 C 2.207031 -0.710938 2.28125 -0.425781 2.371094 -0.101562 C 2.511719 0.746094 2.515625 1.683594 2.390625 2.714844 C 2.261719 3.746094 2.035156 4.789062 1.703125 5.84375 C 1.371094 6.898438 0.957031 7.925781 0.464844 8.921875 C -0.0273438 9.917969 -0.574219 10.800781 -1.167969 11.570312 C -1.765625 12.335938 -2.390625 12.949219 -3.042969 13.410156 C -3.695312 13.867188 -4.332031 14.097656 -4.953125 14.097656 C -5.800781 14.050781 -6.394531 13.714844 -6.738281 13.082031 C -7.082031 12.453125 -7.230469 11.703125 -7.1875 10.832031 L -7.1875 10.726562 C -6.980469 9.007812 -6.550781 7.261719 -5.898438 5.484375 C -5.242188 3.707031 -4.46875 1.9375 -3.574219 0.171875 C -2.683594 -1.59375 -1.726562 -3.359375 -0.703125 -5.125 C 0.316406 -6.886719 1.296875 -8.628906 2.234375 -10.347656 L 9.59375 -23.242188 C 10.164062 -24.230469 10.734375 -25.230469 11.292969 -26.25 C 11.855469 -27.273438 12.390625 -28.261719 12.894531 -29.226562 C 13.398438 -30.1875 13.851562 -31.109375 14.25 -31.992188 C 14.652344 -32.875 14.980469 -33.683594 15.230469 -34.417969 C 15.507812 -34.578125 15.875 -34.566406 16.332031 -34.382812 C 16.789062 -34.199219 17.21875 -33.929688 17.621094 -33.574219 C 18.023438 -33.21875 18.328125 -32.796875 18.53125 -32.304688 C 18.738281 -31.808594 18.738281 -31.335938 18.53125 -30.875 C 18.394531 -30.53125 18.136719 -30.015625 17.757812 -29.328125 C 17.378906 -28.640625 16.933594 -27.855469 16.417969 -26.972656 C 15.902344 -26.089844 15.347656 -25.15625 14.75 -24.171875 C 14.15625 -23.1875 13.570312 -22.246094 12.996094 -21.351562 Z M -3.402344 12.207031 C -2.554688 11.65625 -1.828125 10.859375 -1.21875 9.816406 C -0.613281 8.773438 -0.136719 7.632812 0.207031 6.394531 C 0.550781 5.15625 0.746094 3.898438 0.789062 2.613281 C 0.835938 1.328125 0.722656 0.171875 0.445312 -0.859375 C -0.261719 0.378906 -0.898438 1.523438 -1.460938 2.578125 C -2.023438 3.632812 -2.511719 4.652344 -2.921875 5.640625 C -3.335938 6.625 -3.683594 7.585938 -3.972656 8.527344 C -4.257812 9.46875 -4.480469 10.441406 -4.640625 11.449219 C -4.664062 11.90625 -4.605469 12.230469 -4.46875 12.414062 C -4.332031 12.597656 -3.976562 12.527344 -3.402344 12.207031 Z M -3.402344 12.207031 "/></g></g></g><g fill="#ffffff" fill-opacity="1"><g transform="translate(674.274134, 645.164543)"><g><path d="M 5.742188 -8.21875 C 5.695312 -8.101562 5.671875 -8.035156 5.671875 -8.011719 C 8.011719 -8.675781 10.171875 -9.71875 12.15625 -11.140625 C 14.136719 -12.5625 15.78125 -14.371094 17.089844 -16.574219 C 17.339844 -16.984375 17.511719 -17.371094 17.605469 -17.722656 C 17.695312 -18.078125 17.703125 -18.390625 17.621094 -18.652344 C 17.542969 -18.917969 17.378906 -19.105469 17.140625 -19.21875 C 16.898438 -19.335938 16.585938 -19.359375 16.195312 -19.289062 C 15.371094 -19.128906 14.566406 -18.832031 13.789062 -18.394531 C 13.007812 -17.960938 12.261719 -17.433594 11.554688 -16.8125 C 10.84375 -16.195312 10.175781 -15.507812 9.558594 -14.75 C 8.941406 -13.992188 8.378906 -13.230469 7.875 -12.464844 C 7.371094 -11.695312 6.941406 -10.945312 6.585938 -10.210938 C 6.230469 -9.476562 5.949219 -8.8125 5.742188 -8.21875 Z M 0.550781 -5.570312 C 0.664062 -7.199219 1.101562 -8.8125 1.855469 -10.417969 C 2.613281 -12.023438 3.78125 -13.765625 5.363281 -15.644531 C 5.867188 -16.242188 6.53125 -16.886719 7.359375 -17.585938 C 8.183594 -18.285156 9.09375 -18.929688 10.089844 -19.511719 C 11.089844 -20.097656 12.136719 -20.578125 13.238281 -20.957031 C 14.335938 -21.335938 15.414062 -21.511719 16.46875 -21.488281 C 17.132812 -21.464844 17.703125 -21.300781 18.171875 -20.992188 C 18.640625 -20.679688 18.960938 -20.269531 19.132812 -19.753906 C 19.304688 -19.238281 19.3125 -18.628906 19.152344 -17.929688 C 18.992188 -17.230469 18.613281 -16.492188 18.015625 -15.714844 C 16.550781 -13.375 14.714844 -11.449219 12.515625 -9.9375 C 10.316406 -8.425781 7.929688 -7.3125 5.363281 -6.601562 L 5.296875 -6.5 C 5.203125 -5.972656 5.15625 -5.4375 5.15625 -4.898438 C 5.15625 -4.359375 5.230469 -3.855469 5.382812 -3.386719 C 5.53125 -2.917969 5.765625 -2.519531 6.085938 -2.199219 C 6.40625 -1.878906 6.855469 -1.671875 7.425781 -1.582031 C 8.046875 -1.488281 8.808594 -1.617188 9.714844 -1.960938 C 10.617188 -2.304688 11.574219 -2.808594 12.585938 -3.472656 C 13.59375 -4.136719 14.601562 -4.929688 15.609375 -5.84375 C 16.617188 -6.761719 17.546875 -7.734375 18.394531 -8.769531 C 18.921875 -9.410156 19.386719 -10.046875 19.789062 -10.675781 C 20.1875 -11.304688 20.574219 -11.90625 20.9375 -12.480469 C 21.078125 -12.617188 21.230469 -12.699219 21.402344 -12.722656 C 21.574219 -12.746094 21.71875 -12.714844 21.832031 -12.636719 C 21.949219 -12.554688 22.027344 -12.433594 22.074219 -12.273438 C 22.121094 -12.113281 22.074219 -11.941406 21.9375 -11.757812 C 21.476562 -11.140625 21.003906 -10.46875 20.507812 -9.746094 C 20.015625 -9.027344 19.464844 -8.292969 18.859375 -7.546875 C 18.25 -6.800781 17.585938 -6.046875 16.863281 -5.277344 C 16.144531 -4.511719 15.335938 -3.757812 14.441406 -3.027344 C 13.25 -2.0625 12.1875 -1.328125 11.261719 -0.824219 C 10.332031 -0.320312 9.511719 0.0351562 8.800781 0.242188 C 8.089844 0.445312 7.488281 0.554688 6.996094 0.566406 C 6.503906 0.578125 6.097656 0.585938 5.777344 0.585938 C 4.8125 0.585938 3.996094 0.425781 3.316406 0.101562 C 2.640625 -0.21875 2.089844 -0.652344 1.667969 -1.203125 C 1.242188 -1.753906 0.941406 -2.402344 0.757812 -3.144531 C 0.574219 -3.890625 0.503906 -4.699219 0.550781 -5.570312 Z M 0.550781 -5.570312 "/></g></g></g><g fill="#ffffff" fill-opacity="1"><g transform="translate(692.01604, 645.164543)"><g/></g></g><g fill="#ffffff" fill-opacity="1"><g transform="translate(708.967128, 645.164543)"><g><path d="M 34.382812 -8.21875 C 34.0625 -5.671875 33.316406 -3.4375 32.148438 -1.511719 C 30.980469 0.414062 29.539062 2.027344 27.832031 3.335938 C 26.125 4.640625 24.207031 5.632812 22.074219 6.308594 C 19.941406 6.984375 17.753906 7.335938 15.507812 7.359375 C 14.359375 7.382812 13.15625 7.277344 11.898438 7.046875 C 10.636719 6.820312 9.402344 6.46875 8.199219 6 C 6.996094 5.53125 5.878906 4.917969 4.847656 4.160156 C 3.816406 3.402344 2.96875 2.503906 2.304688 1.460938 C 1.640625 0.417969 1.210938 -0.773438 1.015625 -2.113281 C 0.820312 -3.457031 0.953125 -4.960938 1.410156 -6.636719 C 1.777344 -8.011719 2.457031 -9.296875 3.457031 -10.488281 C 4.453125 -11.679688 5.691406 -12.652344 7.167969 -13.410156 C 8.648438 -14.164062 10.332031 -14.640625 12.222656 -14.835938 C 14.113281 -15.03125 16.125 -14.808594 18.257812 -14.164062 C 18.488281 -14.097656 18.765625 -13.984375 19.101562 -13.820312 C 19.433594 -13.660156 19.683594 -13.5 19.855469 -13.339844 C 20.027344 -13.179688 20.0625 -13.054688 19.960938 -12.960938 C 19.855469 -12.871094 19.484375 -12.871094 18.84375 -12.960938 C 16.757812 -13.261719 14.949219 -13.191406 13.425781 -12.757812 C 11.902344 -12.320312 10.625 -11.671875 9.59375 -10.8125 C 8.5625 -9.953125 7.765625 -8.96875 7.203125 -7.855469 C 6.640625 -6.746094 6.28125 -5.660156 6.121094 -4.605469 C 5.9375 -3.53125 6.015625 -2.453125 6.359375 -1.375 C 6.703125 -0.296875 7.242188 0.675781 7.976562 1.546875 C 8.710938 2.417969 9.617188 3.132812 10.691406 3.695312 C 11.769531 4.257812 12.972656 4.550781 14.304688 4.574219 C 15.679688 4.597656 17.015625 4.414062 18.308594 4.023438 C 19.605469 3.632812 20.820312 3.089844 21.953125 2.390625 C 23.089844 1.691406 24.121094 0.867188 25.046875 -0.0859375 C 25.976562 -1.039062 26.765625 -2.0625 27.421875 -3.164062 C 28.074219 -4.261719 28.574219 -5.402344 28.917969 -6.585938 C 29.261719 -7.765625 29.410156 -8.929688 29.363281 -10.074219 C 29.292969 -11.769531 29.09375 -13.460938 28.761719 -15.144531 C 28.429688 -16.832031 28.089844 -18.519531 27.746094 -20.21875 C 26.738281 -19.875 25.765625 -19.542969 24.824219 -19.21875 C 23.886719 -18.898438 22.980469 -18.578125 22.109375 -18.257812 C 22.199219 -19.265625 22.113281 -20.210938 21.851562 -21.09375 C 21.585938 -21.976562 21.21875 -22.820312 20.75 -23.621094 C 20.28125 -24.421875 19.753906 -25.226562 19.167969 -26.027344 C 18.585938 -26.832031 18.015625 -27.65625 17.464844 -28.503906 C 16.917969 -29.351562 16.417969 -30.25 15.972656 -31.203125 C 15.523438 -32.152344 15.207031 -33.203125 15.027344 -34.347656 C 14.863281 -35.359375 14.875 -36.433594 15.058594 -37.582031 C 15.242188 -38.726562 15.65625 -39.796875 16.296875 -40.796875 C 16.941406 -41.792969 17.820312 -42.640625 18.945312 -43.339844 C 20.070312 -44.039062 21.488281 -44.421875 23.207031 -44.492188 C 24.929688 -44.582031 26.441406 -44.324219 27.746094 -43.71875 C 29.054688 -43.109375 30.1875 -42.292969 31.152344 -41.261719 C 31.863281 -42.015625 32.652344 -42.722656 33.523438 -43.375 C 34.394531 -44.027344 35.339844 -44.59375 36.359375 -45.078125 C 37.378906 -45.558594 38.480469 -45.9375 39.660156 -46.210938 C 40.839844 -46.484375 42.097656 -46.625 43.425781 -46.625 C 44.734375 -46.625 45.953125 -46.417969 47.089844 -46.003906 C 48.222656 -45.59375 49.183594 -44.996094 49.976562 -44.21875 C 50.765625 -43.4375 51.339844 -42.484375 51.695312 -41.363281 C 52.050781 -40.238281 52.113281 -38.992188 51.882812 -37.617188 C 51.5625 -35.734375 50.789062 -34.023438 49.5625 -32.476562 C 48.335938 -30.929688 46.824219 -29.519531 45.023438 -28.246094 C 43.226562 -26.972656 41.21875 -25.808594 39.007812 -24.757812 C 36.796875 -23.703125 34.554688 -22.738281 32.285156 -21.867188 C 32.605469 -20.789062 32.921875 -19.691406 33.230469 -18.566406 C 33.539062 -17.445312 33.804688 -16.308594 34.023438 -15.164062 C 34.238281 -14.015625 34.390625 -12.863281 34.46875 -11.707031 C 34.550781 -10.550781 34.519531 -9.386719 34.382812 -8.21875 Z M 34.074219 -28.710938 C 34.164062 -30.292969 34.023438 -31.730469 33.644531 -33.023438 C 33.265625 -34.320312 32.746094 -35.484375 32.078125 -36.515625 C 31.207031 -35.09375 30.703125 -33.570312 30.566406 -31.941406 C 30.453125 -30.660156 30.519531 -29.335938 30.773438 -27.972656 C 31.023438 -26.605469 31.359375 -25.191406 31.769531 -23.722656 C 33.511719 -24.367188 35.3125 -25.128906 37.167969 -26.011719 C 39.023438 -26.894531 40.746094 -27.902344 42.324219 -29.035156 C 43.90625 -30.171875 45.238281 -31.4375 46.3125 -32.835938 C 47.390625 -34.234375 48.035156 -35.769531 48.238281 -37.445312 C 48.308594 -37.925781 48.285156 -38.46875 48.171875 -39.078125 C 48.054688 -39.683594 47.796875 -40.25 47.398438 -40.777344 C 46.996094 -41.304688 46.410156 -41.734375 45.644531 -42.066406 C 44.875 -42.398438 43.863281 -42.554688 42.601562 -42.53125 C 40.652344 -42.464844 38.875 -42.023438 37.269531 -41.207031 C 35.667969 -40.394531 34.316406 -39.347656 33.214844 -38.0625 C 33.902344 -36.550781 34.320312 -34.960938 34.46875 -33.300781 C 34.617188 -31.636719 34.488281 -30.109375 34.074219 -28.710938 Z M 26.886719 -33.421875 C 27.09375 -34.382812 27.421875 -35.363281 27.867188 -36.359375 C 28.316406 -37.359375 28.882812 -38.335938 29.570312 -39.300781 C 28.699219 -39.964844 27.789062 -40.457031 26.835938 -40.777344 C 25.886719 -41.097656 24.949219 -41.238281 24.035156 -41.191406 C 23.550781 -41.167969 22.957031 -41.023438 22.246094 -40.761719 C 21.535156 -40.496094 20.894531 -40.050781 20.320312 -39.421875 C 19.746094 -38.789062 19.335938 -37.949219 19.082031 -36.894531 C 18.832031 -35.839844 18.921875 -34.507812 19.359375 -32.90625 C 19.679688 -31.710938 20.097656 -30.625 20.613281 -29.636719 C 21.128906 -28.652344 21.632812 -27.703125 22.125 -26.785156 C 22.617188 -25.867188 23.046875 -24.96875 23.414062 -24.085938 C 23.78125 -23.203125 23.976562 -22.269531 24 -21.285156 C 24.390625 -21.398438 24.863281 -21.53125 25.425781 -21.679688 C 25.988281 -21.828125 26.625 -22.015625 27.335938 -22.246094 C 26.945312 -24.195312 26.675781 -26.097656 26.527344 -27.953125 C 26.378906 -29.808594 26.5 -31.632812 26.886719 -33.421875 Z M 26.886719 -33.421875 "/></g></g></g><g fill="#ffffff" fill-opacity="1"><g transform="translate(746.926576, 645.164543)"><g><path d="M 19.839844 -15.300781 C 19.976562 -14.15625 19.929688 -12.96875 19.703125 -11.742188 C 19.472656 -10.515625 19.09375 -9.3125 18.566406 -8.132812 C 18.039062 -6.949219 17.398438 -5.820312 16.640625 -4.746094 C 15.886719 -3.667969 15.042969 -2.726562 14.113281 -1.925781 C 13.1875 -1.125 12.207031 -0.488281 11.175781 -0.015625 C 10.144531 0.453125 9.089844 0.675781 8.011719 0.652344 C 6.269531 0.652344 4.738281 0.125 3.421875 -0.929688 C 2.101562 -1.984375 1.214844 -3.574219 0.757812 -5.707031 C 0.480469 -6.855469 0.457031 -8.078125 0.6875 -9.386719 C 0.917969 -10.691406 1.328125 -11.984375 1.925781 -13.253906 C 2.519531 -14.527344 3.285156 -15.734375 4.210938 -16.882812 C 5.140625 -18.027344 6.171875 -19.027344 7.304688 -19.875 C 8.441406 -20.722656 9.648438 -21.371094 10.933594 -21.816406 C 12.21875 -22.261719 13.511719 -22.417969 14.820312 -22.28125 C 15.53125 -22.1875 16.132812 -22 16.625 -21.714844 C 17.117188 -21.425781 17.519531 -21.089844 17.828125 -20.699219 C 18.136719 -20.308594 18.367188 -19.875 18.515625 -19.390625 C 18.664062 -18.910156 18.75 -18.429688 18.773438 -17.949219 C 19.046875 -17.628906 19.273438 -17.238281 19.445312 -16.777344 C 19.617188 -16.320312 19.746094 -15.828125 19.839844 -15.300781 Z M 14.027344 -13.101562 C 13.914062 -13.144531 13.828125 -13.285156 13.769531 -13.511719 C 13.714844 -13.742188 13.679688 -14.003906 13.667969 -14.304688 C 13.65625 -14.601562 13.648438 -14.910156 13.648438 -15.230469 C 13.648438 -15.550781 13.660156 -15.839844 13.683594 -16.089844 C 13.707031 -16.367188 13.828125 -16.636719 14.046875 -16.898438 C 14.261719 -17.164062 14.5 -17.398438 14.75 -17.605469 C 15.003906 -17.808594 15.25 -17.984375 15.488281 -18.121094 C 15.730469 -18.257812 15.898438 -18.347656 15.988281 -18.394531 C 16.378906 -18.578125 16.734375 -18.679688 17.054688 -18.703125 C 17.007812 -19.164062 16.820312 -19.53125 16.488281 -19.804688 C 16.15625 -20.078125 15.550781 -20.195312 14.683594 -20.148438 C 13.949219 -20.078125 13.128906 -19.816406 12.222656 -19.359375 C 11.316406 -18.898438 10.5 -18.304688 9.765625 -17.570312 C 8.941406 -16.722656 8.199219 -15.757812 7.546875 -14.683594 C 6.894531 -13.605469 6.355469 -12.511719 5.929688 -11.398438 C 5.507812 -10.285156 5.226562 -9.191406 5.089844 -8.113281 C 4.953125 -7.039062 4.980469 -6.070312 5.175781 -5.210938 C 5.371094 -4.347656 5.746094 -3.644531 6.308594 -3.09375 C 6.871094 -2.542969 7.65625 -2.234375 8.664062 -2.167969 C 9.46875 -2.121094 10.261719 -2.292969 11.054688 -2.683594 C 11.84375 -3.070312 12.601562 -3.609375 13.324219 -4.296875 C 14.046875 -4.984375 14.714844 -5.78125 15.335938 -6.6875 C 15.953125 -7.59375 16.488281 -8.539062 16.933594 -9.523438 C 17.378906 -10.511719 17.734375 -11.496094 18 -12.480469 C 18.261719 -13.464844 18.382812 -14.382812 18.359375 -15.230469 C 18.359375 -15.875 18.132812 -16.230469 17.671875 -16.296875 C 17.351562 -16.34375 16.992188 -16.261719 16.589844 -16.058594 C 16.1875 -15.851562 15.804688 -15.582031 15.4375 -15.25 C 15.070312 -14.917969 14.757812 -14.554688 14.492188 -14.164062 C 14.230469 -13.777344 14.074219 -13.421875 14.027344 -13.101562 Z M 14.027344 -13.101562 "/></g></g></g><g fill="#ffffff" fill-opacity="1"><g transform="translate(766.800211, 645.164543)"><g><path d="M 18.636719 -21.351562 C 18.957031 -21.488281 19.351562 -21.464844 19.820312 -21.285156 C 20.292969 -21.101562 20.722656 -20.824219 21.113281 -20.457031 C 21.5 -20.089844 21.800781 -19.667969 22.003906 -19.1875 C 22.210938 -18.703125 22.222656 -18.246094 22.039062 -17.808594 C 21.855469 -17.421875 21.511719 -16.785156 21.007812 -15.902344 C 20.503906 -15.019531 19.949219 -14.015625 19.339844 -12.894531 C 18.734375 -11.769531 18.136719 -10.613281 17.550781 -9.421875 C 16.96875 -8.230469 16.488281 -7.140625 16.109375 -6.15625 C 15.730469 -5.167969 15.519531 -4.347656 15.472656 -3.695312 C 15.425781 -3.042969 15.65625 -2.703125 16.160156 -2.683594 L 16.710938 -2.683594 C 17.695312 -2.980469 18.640625 -3.5 19.546875 -4.246094 C 20.453125 -4.992188 21.300781 -5.828125 22.089844 -6.757812 C 22.882812 -7.683594 23.621094 -8.660156 24.308594 -9.679688 C 24.996094 -10.699219 25.636719 -11.632812 26.234375 -12.480469 C 26.347656 -12.617188 26.492188 -12.699219 26.664062 -12.722656 C 26.835938 -12.746094 26.984375 -12.714844 27.109375 -12.636719 C 27.238281 -12.554688 27.316406 -12.433594 27.351562 -12.273438 C 27.386719 -12.113281 27.335938 -11.941406 27.195312 -11.757812 C 26.578125 -10.886719 25.960938 -10 25.339844 -9.09375 C 24.722656 -8.1875 24.078125 -7.304688 23.414062 -6.445312 C 22.75 -5.585938 22.050781 -4.761719 21.316406 -3.972656 C 20.585938 -3.179688 19.792969 -2.453125 18.945312 -1.789062 C 18.738281 -1.628906 18.476562 -1.4375 18.15625 -1.21875 C 17.832031 -1.003906 17.464844 -0.796875 17.054688 -0.601562 C 16.640625 -0.40625 16.199219 -0.246094 15.730469 -0.121094 C 15.261719 0.00390625 14.773438 0.0703125 14.269531 0.0703125 C 13.671875 0.046875 13.1875 -0.121094 12.808594 -0.429688 C 12.429688 -0.738281 12.148438 -1.144531 11.964844 -1.652344 C 11.78125 -2.15625 11.703125 -2.734375 11.726562 -3.386719 C 11.746094 -4.039062 11.863281 -4.734375 12.070312 -5.46875 C 12.113281 -5.742188 12.183594 -6.015625 12.273438 -6.292969 C 12.367188 -6.566406 12.46875 -6.855469 12.585938 -7.152344 C 11.851562 -6.144531 11.070312 -5.179688 10.246094 -4.261719 C 9.421875 -3.347656 8.515625 -2.519531 7.53125 -1.789062 C 7.324219 -1.628906 7.058594 -1.4375 6.738281 -1.21875 C 6.417969 -1.003906 6.058594 -0.796875 5.65625 -0.601562 C 5.253906 -0.40625 4.824219 -0.246094 4.367188 -0.121094 C 3.910156 0.00390625 3.425781 0.0703125 2.921875 0.0703125 C 2.328125 0.046875 1.84375 -0.121094 1.476562 -0.429688 C 1.113281 -0.738281 0.84375 -1.144531 0.671875 -1.652344 C 0.5 -2.15625 0.425781 -2.734375 0.445312 -3.386719 C 0.46875 -4.039062 0.574219 -4.734375 0.757812 -5.46875 C 1.03125 -6.5 1.460938 -7.707031 2.046875 -9.09375 C 2.628906 -10.480469 3.25 -11.90625 3.902344 -13.375 C 4.554688 -14.84375 5.191406 -16.273438 5.8125 -17.671875 C 6.429688 -19.070312 6.921875 -20.296875 7.289062 -21.351562 C 7.609375 -21.488281 8 -21.464844 8.457031 -21.285156 C 8.917969 -21.101562 9.339844 -20.824219 9.730469 -20.457031 C 10.121094 -20.089844 10.417969 -19.667969 10.625 -19.1875 C 10.832031 -18.703125 10.84375 -18.246094 10.660156 -17.808594 C 10.476562 -17.421875 10.136719 -16.785156 9.644531 -15.902344 C 9.152344 -15.019531 8.605469 -14.015625 8.011719 -12.894531 C 7.414062 -11.769531 6.820312 -10.613281 6.222656 -9.421875 C 5.628906 -8.230469 5.140625 -7.140625 4.761719 -6.15625 C 4.382812 -5.167969 4.171875 -4.347656 4.125 -3.695312 C 4.082031 -3.042969 4.308594 -2.703125 4.8125 -2.683594 L 5.328125 -2.683594 C 6.292969 -2.957031 7.203125 -3.445312 8.0625 -4.144531 C 8.921875 -4.84375 9.742188 -5.640625 10.519531 -6.53125 C 11.300781 -7.425781 12.035156 -8.359375 12.722656 -9.335938 C 13.410156 -10.308594 14.050781 -11.21875 14.648438 -12.070312 C 15.015625 -12.894531 15.390625 -13.730469 15.78125 -14.578125 C 16.171875 -15.425781 16.539062 -16.257812 16.882812 -17.070312 C 17.226562 -17.886719 17.550781 -18.652344 17.863281 -19.375 C 18.171875 -20.097656 18.429688 -20.757812 18.636719 -21.351562 Z M 18.636719 -21.351562 "/></g></g></g><g fill="#ffffff" fill-opacity="1"><g transform="translate(789.665209, 645.164543)"><g><path d="M 17.808594 -7.289062 C 17.144531 -6.441406 16.394531 -5.574219 15.558594 -4.691406 C 14.722656 -3.8125 13.828125 -3.019531 12.875 -2.320312 C 11.925781 -1.621094 10.945312 -1.046875 9.9375 -0.601562 C 8.929688 -0.15625 7.90625 0.046875 6.875 0 C 6.328125 -0.0234375 5.855469 -0.136719 5.46875 -0.34375 C 5.078125 -0.550781 4.769531 -0.824219 4.539062 -1.167969 C 4.308594 -1.511719 4.148438 -1.910156 4.058594 -2.355469 C 3.964844 -2.800781 3.953125 -3.265625 4.023438 -3.746094 C 4.136719 -4.617188 4.371094 -5.4375 4.726562 -6.207031 C 5.082031 -6.972656 5.507812 -7.71875 6 -8.441406 C 6.492188 -9.164062 7.042969 -9.886719 7.648438 -10.605469 C 8.257812 -11.328125 8.871094 -12.078125 9.488281 -12.859375 C 9.902344 -13.363281 10.308594 -13.863281 10.710938 -14.355469 C 11.113281 -14.847656 11.460938 -15.289062 11.757812 -15.679688 C 12.058594 -16.070312 12.273438 -16.378906 12.414062 -16.605469 C 12.550781 -16.835938 12.550781 -16.941406 12.414062 -16.917969 C 11.976562 -16.847656 11.609375 -16.773438 11.3125 -16.691406 C 11.015625 -16.613281 10.734375 -16.539062 10.46875 -16.46875 C 10.207031 -16.402344 9.9375 -16.347656 9.660156 -16.316406 C 9.386719 -16.28125 9.042969 -16.261719 8.628906 -16.261719 C 8.46875 -16.261719 8.320312 -16.261719 8.183594 -16.261719 C 8.046875 -16.261719 7.917969 -16.273438 7.804688 -16.296875 C 7.046875 -15.425781 6.332031 -14.527344 5.65625 -13.597656 C 4.980469 -12.671875 4.34375 -11.78125 3.746094 -10.933594 C 3.632812 -10.796875 3.496094 -10.714844 3.335938 -10.691406 C 3.175781 -10.671875 3.039062 -10.699219 2.921875 -10.777344 C 2.808594 -10.859375 2.738281 -10.980469 2.714844 -11.140625 C 2.691406 -11.300781 2.75 -11.472656 2.886719 -11.65625 C 3.53125 -12.574219 4.136719 -13.449219 4.710938 -14.285156 C 5.285156 -15.121094 5.890625 -15.988281 6.53125 -16.882812 C 6.210938 -17.132812 6.050781 -17.472656 6.050781 -17.898438 C 6.050781 -18.320312 6.15625 -18.785156 6.359375 -19.289062 C 6.566406 -19.792969 6.835938 -20.316406 7.167969 -20.851562 C 7.5 -21.390625 7.84375 -21.914062 8.199219 -22.417969 C 8.554688 -22.921875 8.886719 -23.398438 9.199219 -23.84375 C 9.507812 -24.292969 9.730469 -24.664062 9.867188 -24.960938 C 10.210938 -24.824219 10.550781 -24.652344 10.882812 -24.445312 C 11.214844 -24.238281 11.484375 -23.980469 11.691406 -23.671875 C 11.898438 -23.363281 12.003906 -22.984375 12.015625 -22.539062 C 12.027344 -22.089844 11.886719 -21.558594 11.585938 -20.9375 L 9.558594 -18.394531 C 9.421875 -18.234375 9.511719 -18.175781 9.832031 -18.222656 C 10.15625 -18.269531 10.601562 -18.378906 11.175781 -18.550781 C 11.746094 -18.722656 12.402344 -18.945312 13.132812 -19.21875 C 13.867188 -19.496094 14.574219 -19.777344 15.25 -20.0625 C 15.925781 -20.347656 16.519531 -20.628906 17.035156 -20.90625 C 17.550781 -21.179688 17.890625 -21.398438 18.050781 -21.558594 C 18.144531 -21.558594 18.269531 -21.5 18.429688 -21.386719 C 18.589844 -21.273438 18.75 -21.144531 18.910156 -21.007812 C 19.070312 -20.871094 19.214844 -20.734375 19.339844 -20.59375 C 19.464844 -20.457031 19.542969 -20.367188 19.5625 -20.320312 C 19.816406 -19.90625 19.765625 -19.347656 19.410156 -18.636719 C 19.054688 -17.925781 18.519531 -17.121094 17.808594 -16.230469 C 17.101562 -15.335938 16.273438 -14.359375 15.335938 -13.304688 C 14.394531 -12.25 13.464844 -11.175781 12.550781 -10.074219 C 12.230469 -9.730469 11.878906 -9.328125 11.5 -8.871094 C 11.121094 -8.414062 10.757812 -7.929688 10.402344 -7.425781 C 10.046875 -6.921875 9.730469 -6.429688 9.457031 -5.949219 C 9.179688 -5.46875 9.003906 -5.03125 8.921875 -4.640625 C 8.84375 -4.253906 8.882812 -3.929688 9.042969 -3.679688 C 9.203125 -3.425781 9.546875 -3.289062 10.074219 -3.265625 C 10.417969 -3.265625 10.871094 -3.386719 11.433594 -3.628906 C 11.992188 -3.867188 12.589844 -4.199219 13.21875 -4.625 C 13.851562 -5.046875 14.492188 -5.554688 15.144531 -6.136719 C 15.800781 -6.722656 16.390625 -7.359375 16.917969 -8.046875 C 17.558594 -8.894531 18.144531 -9.707031 18.671875 -10.488281 C 19.199219 -11.265625 19.65625 -11.929688 20.046875 -12.480469 C 20.160156 -12.617188 20.296875 -12.699219 20.457031 -12.722656 C 20.617188 -12.746094 20.761719 -12.714844 20.886719 -12.636719 C 21.015625 -12.554688 21.089844 -12.433594 21.113281 -12.273438 C 21.132812 -12.113281 21.066406 -11.941406 20.90625 -11.757812 C 20.402344 -11.027344 19.890625 -10.273438 19.375 -9.507812 C 18.859375 -8.738281 18.335938 -8 17.808594 -7.289062 Z M 17.808594 -7.289062 "/></g></g></g><g fill="#ffffff" fill-opacity="1"><g transform="translate(806.272478, 645.164543)"><g><path d="M 21.9375 -11.757812 C 21.476562 -11.140625 21.003906 -10.46875 20.507812 -9.746094 C 20.015625 -9.027344 19.464844 -8.292969 18.859375 -7.546875 C 18.25 -6.800781 17.585938 -6.046875 16.863281 -5.277344 C 16.144531 -4.511719 15.335938 -3.757812 14.441406 -3.027344 C 13.25 -2.0625 12.1875 -1.328125 11.261719 -0.824219 C 10.332031 -0.320312 9.511719 0.0351562 8.800781 0.242188 C 8.089844 0.445312 7.488281 0.554688 6.996094 0.566406 C 6.503906 0.578125 6.097656 0.585938 5.777344 0.585938 C 4.8125 0.585938 3.996094 0.425781 3.316406 0.101562 C 2.640625 -0.21875 2.089844 -0.652344 1.667969 -1.203125 C 1.242188 -1.753906 0.941406 -2.402344 0.757812 -3.144531 C 0.574219 -3.890625 0.503906 -4.699219 0.550781 -5.570312 C 0.664062 -7.199219 1.101562 -8.8125 1.855469 -10.417969 C 2.613281 -12.023438 3.78125 -13.765625 5.363281 -15.644531 C 5.867188 -16.242188 6.53125 -16.886719 7.359375 -17.585938 C 8.183594 -18.285156 9.09375 -18.929688 10.089844 -19.511719 C 11.089844 -20.097656 12.136719 -20.578125 13.238281 -20.957031 C 14.335938 -21.335938 15.414062 -21.511719 16.46875 -21.488281 C 17.132812 -21.464844 17.691406 -21.300781 18.136719 -20.992188 C 18.585938 -20.679688 18.886719 -20.269531 19.046875 -19.753906 C 19.207031 -19.238281 19.207031 -18.648438 19.046875 -17.984375 C 18.886719 -17.316406 18.554688 -16.617188 18.050781 -15.886719 C 17.800781 -15.632812 17.546875 -15.582031 17.292969 -15.730469 C 17.042969 -15.878906 16.960938 -16.136719 17.054688 -16.503906 C 17.328125 -16.917969 17.511719 -17.3125 17.605469 -17.691406 C 17.695312 -18.070312 17.707031 -18.390625 17.636719 -18.652344 C 17.570312 -18.917969 17.414062 -19.105469 17.175781 -19.21875 C 16.933594 -19.335938 16.605469 -19.359375 16.195312 -19.289062 C 15.371094 -19.128906 14.566406 -18.832031 13.789062 -18.394531 C 13.007812 -17.960938 12.261719 -17.433594 11.554688 -16.8125 C 10.84375 -16.195312 10.175781 -15.507812 9.558594 -14.75 C 8.941406 -13.992188 8.378906 -13.230469 7.875 -12.464844 C 7.371094 -11.695312 6.941406 -10.945312 6.585938 -10.210938 C 6.230469 -9.476562 5.949219 -8.8125 5.742188 -8.21875 C 5.558594 -7.691406 5.402344 -7.070312 5.277344 -6.359375 C 5.152344 -5.648438 5.125 -4.957031 5.191406 -4.28125 C 5.261719 -3.605469 5.46875 -3.015625 5.8125 -2.511719 C 6.15625 -2.003906 6.691406 -1.695312 7.425781 -1.582031 C 8.046875 -1.488281 8.808594 -1.617188 9.714844 -1.960938 C 10.617188 -2.304688 11.574219 -2.808594 12.585938 -3.472656 C 13.59375 -4.136719 14.601562 -4.929688 15.609375 -5.84375 C 16.617188 -6.761719 17.546875 -7.734375 18.394531 -8.769531 C 18.921875 -9.410156 19.386719 -10.046875 19.789062 -10.675781 C 20.1875 -11.304688 20.574219 -11.90625 20.9375 -12.480469 C 21.078125 -12.617188 21.230469 -12.699219 21.402344 -12.722656 C 21.574219 -12.746094 21.71875 -12.714844 21.832031 -12.636719 C 21.949219 -12.554688 22.027344 -12.433594 22.074219 -12.273438 C 22.121094 -12.113281 22.074219 -11.941406 21.9375 -11.757812 Z M 21.9375 -11.757812 "/></g></g></g><g fill="#ffffff" fill-opacity="1"><g transform="translate(824.358203, 645.164543)"><g><path d="M 5.742188 -8.21875 C 5.695312 -8.101562 5.671875 -8.035156 5.671875 -8.011719 C 8.011719 -8.675781 10.171875 -9.71875 12.15625 -11.140625 C 14.136719 -12.5625 15.78125 -14.371094 17.089844 -16.574219 C 17.339844 -16.984375 17.511719 -17.371094 17.605469 -17.722656 C 17.695312 -18.078125 17.703125 -18.390625 17.621094 -18.652344 C 17.542969 -18.917969 17.378906 -19.105469 17.140625 -19.21875 C 16.898438 -19.335938 16.585938 -19.359375 16.195312 -19.289062 C 15.371094 -19.128906 14.566406 -18.832031 13.789062 -18.394531 C 13.007812 -17.960938 12.261719 -17.433594 11.554688 -16.8125 C 10.84375 -16.195312 10.175781 -15.507812 9.558594 -14.75 C 8.941406 -13.992188 8.378906 -13.230469 7.875 -12.464844 C 7.371094 -11.695312 6.941406 -10.945312 6.585938 -10.210938 C 6.230469 -9.476562 5.949219 -8.8125 5.742188 -8.21875 Z M 0.550781 -5.570312 C 0.664062 -7.199219 1.101562 -8.8125 1.855469 -10.417969 C 2.613281 -12.023438 3.78125 -13.765625 5.363281 -15.644531 C 5.867188 -16.242188 6.53125 -16.886719 7.359375 -17.585938 C 8.183594 -18.285156 9.09375 -18.929688 10.089844 -19.511719 C 11.089844 -20.097656 12.136719 -20.578125 13.238281 -20.957031 C 14.335938 -21.335938 15.414062 -21.511719 16.46875 -21.488281 C 17.132812 -21.464844 17.703125 -21.300781 18.171875 -20.992188 C 18.640625 -20.679688 18.960938 -20.269531 19.132812 -19.753906 C 19.304688 -19.238281 19.3125 -18.628906 19.152344 -17.929688 C 18.992188 -17.230469 18.613281 -16.492188 18.015625 -15.714844 C 16.550781 -13.375 14.714844 -11.449219 12.515625 -9.9375 C 10.316406 -8.425781 7.929688 -7.3125 5.363281 -6.601562 L 5.296875 -6.5 C 5.203125 -5.972656 5.15625 -5.4375 5.15625 -4.898438 C 5.15625 -4.359375 5.230469 -3.855469 5.382812 -3.386719 C 5.53125 -2.917969 5.765625 -2.519531 6.085938 -2.199219 C 6.40625 -1.878906 6.855469 -1.671875 7.425781 -1.582031 C 8.046875 -1.488281 8.808594 -1.617188 9.714844 -1.960938 C 10.617188 -2.304688 11.574219 -2.808594 12.585938 -3.472656 C 13.59375 -4.136719 14.601562 -4.929688 15.609375 -5.84375 C 16.617188 -6.761719 17.546875 -7.734375 18.394531 -8.769531 C 18.921875 -9.410156 19.386719 -10.046875 19.789062 -10.675781 C 20.1875 -11.304688 20.574219 -11.90625 20.9375 -12.480469 C 21.078125 -12.617188 21.230469 -12.699219 21.402344 -12.722656 C 21.574219 -12.746094 21.71875 -12.714844 21.832031 -12.636719 C 21.949219 -12.554688 22.027344 -12.433594 22.074219 -12.273438 C 22.121094 -12.113281 22.074219 -11.941406 21.9375 -11.757812 C 21.476562 -11.140625 21.003906 -10.46875 20.507812 -9.746094 C 20.015625 -9.027344 19.464844 -8.292969 18.859375 -7.546875 C 18.25 -6.800781 17.585938 -6.046875 16.863281 -5.277344 C 16.144531 -4.511719 15.335938 -3.757812 14.441406 -3.027344 C 13.25 -2.0625 12.1875 -1.328125 11.261719 -0.824219 C 10.332031 -0.320312 9.511719 0.0351562 8.800781 0.242188 C 8.089844 0.445312 7.488281 0.554688 6.996094 0.566406 C 6.503906 0.578125 6.097656 0.585938 5.777344 0.585938 C 4.8125 0.585938 3.996094 0.425781 3.316406 0.101562 C 2.640625 -0.21875 2.089844 -0.652344 1.667969 -1.203125 C 1.242188 -1.753906 0.941406 -2.402344 0.757812 -3.144531 C 0.574219 -3.890625 0.503906 -4.699219 0.550781 -5.570312 Z M 0.550781 -5.570312 "/></g></g></g></svg>