<?xml version="1.0" encoding="UTF-8"?>
<svg xmlns="http://www.w3.org/2000/svg" xmlns:xlink="http://www.w3.org/1999/xlink" width="93px" height="90px" viewBox="0 0 92 90" version="1.1">
<defs>
<clipPath id="clip1">
  <path d="M 18.488281 59.558594 L 73.054688 59.558594 L 73.054688 85.851562 L 18.488281 85.851562 Z M 18.488281 59.558594 "/>
</clipPath>
<clipPath id="clip2">
  <path d="M 19.609375 4.074219 L 73.324219 4.074219 L 73.324219 56.484375 L 19.609375 56.484375 Z M 19.609375 4.074219 "/>
</clipPath>
</defs>
<g id="surface1">
<path style=" stroke:none;fill-rule:nonzero;fill:rgb(100%,100%,100%);fill-opacity:1;" d="M 36.421875 42.726562 L 38.347656 42.726562 C 38.457031 42.726562 38.542969 42.640625 38.554688 42.535156 C 38.992188 38.273438 42.558594 35.921875 43.839844 35.207031 C 43.921875 35.164062 43.875 35.039062 43.789062 35.058594 C 38.46875 36.128906 36.605469 41.21875 36.226562 42.453125 C 36.183594 42.589844 36.285156 42.726562 36.421875 42.726562 "/>
<path style=" stroke:none;fill-rule:nonzero;fill:rgb(100%,100%,100%);fill-opacity:1;" d="M 19.082031 50.25 C 19.03125 50.5 18.988281 50.746094 18.953125 50.988281 C 18.8125 51.566406 18.6875 52.152344 18.578125 52.742188 C 25.449219 58.882812 34.953125 59.011719 34.953125 59.011719 C 34.953125 59.011719 24.101562 57.273438 19.082031 50.25 "/>
<g clip-path="url(#clip1)" clip-rule="nonzero">
<path style=" stroke:none;fill-rule:nonzero;fill:rgb(100%,100%,100%);fill-opacity:1;" d="M 52.671875 65.222656 C 52.027344 65.515625 51.421875 65.875 50.800781 66.207031 C 44.140625 69.800781 35.523438 70.144531 35.523438 70.144531 C 35.523438 70.144531 41.636719 68.792969 49.863281 63.996094 C 57.441406 59.574219 64.570312 60.433594 64.570312 60.433594 C 64.570312 60.433594 59.441406 57.441406 49.460938 62.589844 C 39.773438 67.585938 35.523438 70.375 25.964844 67.039062 C 25.964844 67.039062 21.222656 65.019531 18.488281 62.332031 C 20.636719 75.671875 32.09375 85.855469 45.910156 85.855469 C 59.207031 85.855469 70.320312 76.425781 73.050781 63.828125 C 69.191406 62.765625 61.160156 61.332031 52.671875 65.222656 "/>
</g>
<g clip-path="url(#clip2)" clip-rule="nonzero">
<path style=" stroke:none;fill-rule:nonzero;fill:rgb(100%,100%,100%);fill-opacity:1;" d="M 72.871094 50.988281 C 70.605469 36.199219 45.910156 4.074219 45.910156 4.074219 C 45.910156 4.074219 24.324219 32.15625 19.667969 47.894531 C 21.734375 50.183594 26.617188 54.820312 33.425781 56.460938 C 33.167969 56.257812 32.925781 56.039062 32.699219 55.804688 C 31.261719 54.328125 30.492188 52.394531 30.527344 50.359375 C 30.5625 48.289062 31.441406 46.355469 32.996094 44.921875 C 33.3125 44.628906 33.652344 44.367188 34.003906 44.132812 C 34.84375 37.910156 40.125 33.117188 46.515625 33.117188 C 52.859375 33.117188 58.105469 37.832031 59.011719 43.980469 C 59.011719 43.996094 59.03125 43.996094 59.03125 43.980469 L 59.03125 32.511719 L 62.511719 32.511719 L 62.511719 50.359375 L 62.507812 50.359375 C 62.535156 51.8125 62.148438 53.207031 61.40625 54.425781 C 63.578125 53.835938 68.269531 52.800781 73.324219 53.21875 L 72.871094 50.988281 "/>
</g>
<path style=" stroke:none;fill-rule:nonzero;fill:rgb(100%,100%,100%);fill-opacity:1;" d="M 54.496094 45.167969 L 38.539062 45.167969 C 35.496094 45.167969 32.949219 47.480469 32.894531 50.402344 C 32.84375 53.386719 35.351562 55.820312 38.449219 55.820312 C 40.609375 55.820312 42.480469 54.636719 43.398438 52.90625 C 43.402344 52.902344 43.402344 52.898438 43.402344 52.894531 C 43.5 52.714844 43.585938 52.527344 43.660156 52.332031 C 43.667969 52.320312 43.671875 52.3125 43.675781 52.300781 C 43.679688 52.292969 43.683594 52.285156 43.6875 52.277344 C 44.308594 51.164062 45.410156 50.605469 46.515625 50.605469 C 47.625 50.605469 48.730469 51.164062 49.351562 52.285156 C 49.355469 52.292969 49.359375 52.300781 49.363281 52.308594 C 49.367188 52.3125 49.371094 52.320312 49.371094 52.324219 C 49.445312 52.519531 49.535156 52.710938 49.632812 52.894531 C 49.632812 52.898438 49.636719 52.902344 49.636719 52.90625 C 50.554688 54.636719 52.425781 55.820312 54.585938 55.820312 C 57.683594 55.820312 60.191406 53.386719 60.140625 50.402344 C 60.089844 47.480469 57.539062 45.167969 54.496094 45.167969 "/>
</g>
</svg>
