<svg xmlns="http://www.w3.org/2000/svg" xmlns:xlink="http://www.w3.org/1999/xlink" width="160" zoomAndPan="magnify" viewBox="0 0 120 52.499999" height="70" preserveAspectRatio="xMidYMid meet" version="1.0"><defs><g/><clipPath id="5c1276ce42"><path d="M 1.785156 2.285156 L 36.613281 2.285156 L 36.613281 49.832031 L 1.785156 49.832031 Z M 1.785156 2.285156 " clip-rule="nonzero"/></clipPath><clipPath id="95117e7860"><path d="M 1.785156 6.578125 L 36 6.578125 L 36 49.832031 L 1.785156 49.832031 Z M 1.785156 6.578125 " clip-rule="nonzero"/></clipPath><clipPath id="406eeeae73"><path d="M 6 32 L 32.671875 32 L 32.671875 39.828125 L 6 39.828125 Z M 6 32 " clip-rule="nonzero"/></clipPath><clipPath id="0dde7e29c2"><path d="M 112 26 L 119.433594 26 L 119.433594 34 L 112 34 Z M 112 26 " clip-rule="nonzero"/></clipPath></defs><g clip-path="url(#5c1276ce42)"><path fill="#ffffff" d="M 23.070312 2.285156 C 13.277344 6.566406 6.589844 14.28125 3.570312 22.191406 C -0.964844 34.074219 3.007812 47.921875 16.96875 49.714844 C 29.769531 51.359375 42.679688 36.648438 33.535156 21.890625 C 30.675781 17.273438 25.835938 13.925781 23.625 9.058594 C 22.675781 6.96875 22.363281 4.769531 23.070312 2.285156 " fill-opacity="1" fill-rule="evenodd"/></g><g clip-path="url(#95117e7860)"><path fill="#ffffff" d="M 35.871094 37.046875 C 34.246094 26.296875 21.417969 29.988281 14.027344 33.769531 C 9.480469 36.097656 6.109375 32.746094 5.816406 26.242188 C 5.449219 18.042969 13.121094 8.746094 15.417969 6.746094 C 9.742188 11.011719 5.722656 16.550781 3.570312 22.191406 C -0.964844 34.074219 3.007812 47.921875 16.96875 49.714844 C 25.160156 50.765625 33.398438 45.121094 35.871094 37.046875 " fill-opacity="1" fill-rule="evenodd"/></g><path fill="#ffffff" d="M 21.632812 36.976562 C 17.308594 38.84375 14.652344 42.574219 15.703125 45.308594 C 16.753906 48.042969 21.109375 48.746094 25.433594 46.882812 C 29.757812 45.015625 32.414062 41.28125 31.363281 38.546875 C 30.3125 35.8125 25.957031 35.109375 21.632812 36.976562 " fill-opacity="1" fill-rule="evenodd"/><g clip-path="url(#406eeeae73)"><path fill="#ffffff" d="M 8.085938 39.828125 C 5.941406 39.828125 5.941406 36.492188 8.085938 36.492188 C 10.226562 36.492188 10.226562 39.828125 8.085938 39.828125 Z M 30.519531 32.65625 C 28.375 32.65625 28.375 35.992188 30.519531 35.992188 C 32.664062 35.992188 32.660156 32.65625 30.519531 32.65625 Z M 30.519531 32.65625 " fill-opacity="1" fill-rule="nonzero"/></g><path fill="#1d1d1b" d="M 11.742188 34.324219 L 11.742188 34.492188 C 11.742188 35.78125 9.746094 35.78125 9.746094 34.492188 L 9.746094 34.324219 C 9.746094 33.035156 11.742188 33.035156 11.742188 34.324219 Z M 26.199219 30.824219 L 26.03125 30.824219 C 24.746094 30.824219 24.746094 32.824219 26.03125 32.824219 L 26.199219 32.824219 C 27.484375 32.824219 27.484375 30.824219 26.199219 30.824219 Z M 21.476562 34.921875 C 20.109375 36.628906 17.582031 36.601562 15.964844 35.257812 C 15.636719 34.984375 15.164062 35.453125 15.496094 35.726562 C 17.363281 37.285156 20.339844 37.398438 21.945312 35.394531 C 22.210938 35.0625 21.746094 34.585938 21.476562 34.921875 Z M 10.332031 29.8125 C 10.753906 29.742188 10.574219 29.097656 10.15625 29.167969 C 9.148438 29.332031 8.1875 30.128906 8.429688 31.246094 C 8.519531 31.667969 9.160156 31.488281 9.070312 31.070312 C 8.90625 30.316406 9.726562 29.910156 10.332031 29.8125 Z M 25.367188 26.105469 C 25.527344 26.027344 25.640625 25.835938 25.542969 25.632812 C 25.316406 25.144531 24.886719 24.964844 24.386719 25.15625 C 24.167969 25.238281 24.121094 25.453125 24.183594 25.621094 C 24.183594 25.625 24.1875 25.628906 24.1875 25.632812 C 24.257812 25.800781 24.445312 25.929688 24.664062 25.84375 C 24.785156 25.796875 24.808594 25.808594 24.863281 25.925781 C 24.964844 26.144531 25.199219 26.183594 25.367188 26.105469 Z M 25.367188 26.105469 " fill-opacity="1" fill-rule="nonzero"/><g fill="#ffffff" fill-opacity="1"><g transform="translate(36.995428, 33.355326)"><g><path d="M 11.664062 -14.492188 C 11.992188 -14.492188 12.265625 -14.441406 12.484375 -14.339844 C 12.707031 -14.238281 12.886719 -14.105469 13.023438 -13.945312 C 13.160156 -13.785156 13.257812 -13.613281 13.320312 -13.425781 C 13.378906 -13.242188 13.414062 -13.0625 13.421875 -12.898438 C 13.453125 -12.3125 13.339844 -11.738281 13.085938 -11.179688 C 12.832031 -10.621094 12.492188 -10.101562 12.074219 -9.625 C 11.65625 -9.144531 11.183594 -8.726562 10.65625 -8.363281 C 10.128906 -8.003906 9.601562 -7.734375 9.078125 -7.558594 C 9.425781 -7.429688 9.78125 -7.332031 10.144531 -7.261719 C 10.503906 -7.195312 10.863281 -7.15625 11.21875 -7.148438 C 11.746094 -7.886719 12.269531 -8.625 12.800781 -9.367188 C 13.328125 -10.109375 13.84375 -10.8125 14.351562 -11.476562 C 14.855469 -12.140625 15.34375 -12.757812 15.816406 -13.324219 C 16.289062 -13.890625 16.726562 -14.375 17.136719 -14.777344 C 17.527344 -15.152344 17.953125 -15.40625 18.414062 -15.546875 C 18.878906 -15.6875 19.316406 -15.714844 19.726562 -15.621094 C 20.136719 -15.53125 20.484375 -15.320312 20.765625 -14.996094 C 21.046875 -14.667969 21.199219 -14.214844 21.222656 -13.636719 C 21.234375 -13.152344 21.132812 -12.660156 20.914062 -12.167969 C 20.691406 -11.671875 20.382812 -11.191406 19.984375 -10.722656 C 19.585938 -10.257812 19.117188 -9.808594 18.582031 -9.382812 C 18.046875 -8.957031 17.472656 -8.570312 16.859375 -8.222656 C 16.246094 -7.871094 15.613281 -7.570312 14.960938 -7.316406 C 14.308594 -7.058594 13.667969 -6.871094 13.046875 -6.75 C 12.382812 -5.824219 11.707031 -4.914062 11.019531 -4.023438 C 10.332031 -3.136719 9.644531 -2.328125 8.953125 -1.597656 C 9.363281 -1.324219 9.792969 -1.070312 10.246094 -0.839844 C 10.699219 -0.605469 11.164062 -0.425781 11.648438 -0.300781 C 12.128906 -0.175781 12.628906 -0.125 13.140625 -0.140625 C 13.65625 -0.160156 14.179688 -0.28125 14.714844 -0.507812 C 15.25 -0.730469 15.796875 -1.074219 16.359375 -1.539062 C 16.917969 -2.003906 17.480469 -2.621094 18.050781 -3.398438 C 18.097656 -3.429688 18.125 -3.386719 18.128906 -3.277344 C 18.136719 -3.167969 18.125 -3.015625 18.097656 -2.816406 C 18.066406 -2.617188 18.019531 -2.394531 17.953125 -2.136719 C 17.890625 -1.882812 17.804688 -1.628906 17.699219 -1.378906 C 17.589844 -1.128906 17.46875 -0.894531 17.328125 -0.671875 C 17.1875 -0.453125 17.027344 -0.277344 16.855469 -0.148438 C 16.230469 0.308594 15.636719 0.644531 15.070312 0.859375 C 14.503906 1.078125 13.960938 1.203125 13.4375 1.238281 C 12.917969 1.269531 12.421875 1.230469 11.949219 1.117188 C 11.480469 1.003906 11.03125 0.84375 10.609375 0.632812 C 10.1875 0.421875 9.785156 0.179688 9.402344 -0.101562 C 9.019531 -0.382812 8.65625 -0.667969 8.3125 -0.957031 C 7.652344 -0.320312 7.003906 0.191406 6.375 0.574219 C 5.742188 0.960938 5.136719 1.167969 4.550781 1.199219 C 3.988281 1.21875 3.464844 1.152344 2.988281 0.996094 C 2.507812 0.84375 2.089844 0.632812 1.726562 0.371094 C 1.367188 0.109375 1.070312 -0.191406 0.839844 -0.523438 C 0.605469 -0.859375 0.457031 -1.195312 0.386719 -1.527344 C 0.335938 -1.800781 0.320312 -2.050781 0.347656 -2.28125 C 0.375 -2.507812 0.4375 -2.707031 0.535156 -2.878906 C 0.632812 -3.050781 0.765625 -3.183594 0.921875 -3.285156 C 1.082031 -3.382812 1.273438 -3.4375 1.492188 -3.445312 C 1.789062 -3.453125 2.058594 -3.398438 2.296875 -3.285156 C 2.539062 -3.171875 2.75 -3.027344 2.929688 -2.855469 C 3.113281 -2.683594 3.269531 -2.507812 3.402344 -2.320312 C 3.535156 -2.132812 3.648438 -1.980469 3.738281 -1.859375 C 3.679688 -2.027344 3.675781 -2.21875 3.734375 -2.441406 C 3.792969 -2.660156 3.886719 -2.871094 4.019531 -3.074219 C 4.152344 -3.273438 4.3125 -3.449219 4.5 -3.597656 C 4.683594 -3.746094 4.875 -3.839844 5.074219 -3.878906 C 5.234375 -3.90625 5.410156 -3.886719 5.597656 -3.820312 C 5.789062 -3.75 5.996094 -3.652344 6.21875 -3.519531 C 6.445312 -3.386719 6.683594 -3.226562 6.9375 -3.039062 C 7.191406 -2.851562 7.460938 -2.65625 7.742188 -2.453125 C 8.230469 -3.050781 8.730469 -3.707031 9.246094 -4.417969 C 9.765625 -5.128906 10.296875 -5.863281 10.84375 -6.625 C 10.410156 -6.671875 9.960938 -6.753906 9.5 -6.875 C 9.035156 -6.996094 8.574219 -7.15625 8.117188 -7.355469 C 8.066406 -7.347656 8.015625 -7.34375 7.964844 -7.34375 C 7.914062 -7.34375 7.863281 -7.34375 7.8125 -7.34375 C 7.4375 -7.351562 7.070312 -7.394531 6.710938 -7.476562 C 6.347656 -7.554688 6.015625 -7.65625 5.707031 -7.78125 C 5.398438 -7.90625 5.132812 -8.054688 4.910156 -8.222656 C 4.683594 -8.390625 4.527344 -8.566406 4.4375 -8.757812 C 4.398438 -8.839844 4.394531 -8.894531 4.429688 -8.917969 C 4.464844 -8.941406 4.496094 -8.933594 4.527344 -8.894531 C 4.632812 -8.75 4.785156 -8.617188 4.984375 -8.496094 C 5.179688 -8.375 5.402344 -8.261719 5.648438 -8.164062 C 5.898438 -8.066406 6.160156 -7.984375 6.4375 -7.917969 C 6.714844 -7.855469 6.988281 -7.808594 7.261719 -7.777344 C 6.929688 -7.96875 6.617188 -8.179688 6.324219 -8.421875 C 6.03125 -8.660156 5.769531 -8.921875 5.542969 -9.207031 C 5.3125 -9.492188 5.125 -9.800781 4.976562 -10.132812 C 4.828125 -10.460938 4.730469 -10.816406 4.6875 -11.199219 C 4.648438 -11.496094 4.671875 -11.773438 4.761719 -12.035156 C 4.847656 -12.296875 4.980469 -12.527344 5.152344 -12.71875 C 5.328125 -12.914062 5.542969 -13.0625 5.792969 -13.164062 C 6.042969 -13.265625 6.3125 -13.316406 6.601562 -13.308594 C 6.890625 -13.300781 7.148438 -13.222656 7.378906 -13.078125 C 7.605469 -12.933594 7.808594 -12.765625 7.988281 -12.566406 C 8.167969 -12.367188 8.320312 -12.164062 8.457031 -11.949219 C 8.589844 -11.738281 8.703125 -11.558594 8.804688 -11.414062 C 8.78125 -11.484375 8.78125 -11.605469 8.808594 -11.785156 C 8.835938 -11.964844 8.886719 -12.167969 8.96875 -12.394531 C 9.046875 -12.621094 9.160156 -12.859375 9.304688 -13.109375 C 9.449219 -13.355469 9.628906 -13.582031 9.847656 -13.785156 C 10.0625 -13.992188 10.320312 -14.160156 10.621094 -14.292969 C 10.921875 -14.425781 11.269531 -14.492188 11.664062 -14.492188 Z M 12.394531 -12.199219 C 12.394531 -12.285156 12.375 -12.390625 12.339844 -12.515625 C 12.300781 -12.640625 12.234375 -12.761719 12.144531 -12.878906 C 12.054688 -12.996094 11.929688 -13.09375 11.777344 -13.171875 C 11.628906 -13.246094 11.441406 -13.277344 11.21875 -13.261719 C 10.808594 -13.230469 10.472656 -13.113281 10.210938 -12.90625 C 9.949219 -12.703125 9.734375 -12.449219 9.566406 -12.148438 C 9.398438 -11.847656 9.269531 -11.523438 9.171875 -11.167969 C 9.078125 -10.816406 8.996094 -10.480469 8.929688 -10.160156 C 8.714844 -10.523438 8.5 -10.847656 8.277344 -11.128906 C 8.179688 -11.25 8.078125 -11.367188 7.96875 -11.476562 C 7.863281 -11.585938 7.753906 -11.6875 7.640625 -11.773438 C 7.527344 -11.859375 7.410156 -11.925781 7.292969 -11.972656 C 7.175781 -12.019531 7.058594 -12.039062 6.945312 -12.03125 C 6.707031 -12.007812 6.527344 -11.949219 6.398438 -11.851562 C 6.269531 -11.757812 6.171875 -11.648438 6.105469 -11.523438 C 6.042969 -11.398438 6.003906 -11.273438 5.992188 -11.152344 C 5.980469 -11.03125 5.980469 -10.929688 5.988281 -10.855469 C 6.007812 -10.527344 6.085938 -10.21875 6.21875 -9.925781 C 6.351562 -9.632812 6.527344 -9.359375 6.746094 -9.105469 C 6.960938 -8.851562 7.210938 -8.617188 7.496094 -8.402344 C 7.78125 -8.191406 8.09375 -8.003906 8.425781 -7.84375 C 8.707031 -7.914062 9 -8.019531 9.300781 -8.160156 C 9.597656 -8.300781 9.894531 -8.46875 10.1875 -8.671875 C 10.480469 -8.875 10.757812 -9.101562 11.015625 -9.363281 C 11.273438 -9.621094 11.503906 -9.898438 11.707031 -10.199219 C 11.90625 -10.5 12.066406 -10.816406 12.191406 -11.152344 C 12.3125 -11.488281 12.378906 -11.835938 12.394531 -12.199219 Z M 19.964844 -13.5 C 19.972656 -13.652344 19.953125 -13.78125 19.898438 -13.890625 C 19.84375 -13.996094 19.78125 -14.085938 19.703125 -14.15625 C 19.628906 -14.230469 19.546875 -14.28125 19.460938 -14.316406 C 19.371094 -14.351562 19.292969 -14.367188 19.226562 -14.367188 C 18.980469 -14.375 18.671875 -14.195312 18.289062 -13.824219 C 17.910156 -13.457031 17.480469 -12.960938 17 -12.332031 C 16.523438 -11.707031 16.003906 -10.984375 15.441406 -10.164062 C 14.878906 -9.347656 14.285156 -8.5 13.660156 -7.617188 C 14.140625 -7.792969 14.628906 -8.007812 15.125 -8.265625 C 15.625 -8.527344 16.101562 -8.8125 16.5625 -9.121094 C 17.023438 -9.433594 17.457031 -9.769531 17.863281 -10.125 C 18.269531 -10.484375 18.625 -10.851562 18.933594 -11.226562 C 19.242188 -11.601562 19.488281 -11.984375 19.671875 -12.367188 C 19.851562 -12.75 19.953125 -13.128906 19.964844 -13.5 Z M 5.132812 -3.054688 C 4.972656 -3.027344 4.824219 -2.929688 4.6875 -2.765625 C 4.550781 -2.601562 4.441406 -2.410156 4.355469 -2.195312 C 4.273438 -1.976562 4.222656 -1.757812 4.207031 -1.535156 C 4.191406 -1.308594 4.226562 -1.117188 4.308594 -0.957031 C 4.066406 -1.078125 3.824219 -1.238281 3.585938 -1.429688 C 3.347656 -1.625 3.117188 -1.816406 2.902344 -2 C 2.683594 -2.1875 2.484375 -2.34375 2.296875 -2.46875 C 2.113281 -2.59375 1.953125 -2.648438 1.824219 -2.632812 C 1.703125 -2.617188 1.609375 -2.582031 1.546875 -2.519531 C 1.480469 -2.460938 1.433594 -2.386719 1.410156 -2.304688 C 1.382812 -2.21875 1.371094 -2.128906 1.375 -2.035156 C 1.378906 -1.941406 1.382812 -1.851562 1.390625 -1.765625 C 1.421875 -1.5 1.546875 -1.230469 1.761719 -0.953125 C 1.976562 -0.675781 2.234375 -0.425781 2.53125 -0.207031 C 2.828125 0.015625 3.136719 0.195312 3.457031 0.335938 C 3.773438 0.476562 4.058594 0.542969 4.308594 0.535156 C 4.667969 0.519531 5.097656 0.296875 5.597656 -0.136719 C 6.101562 -0.570312 6.65625 -1.152344 7.261719 -1.882812 C 6.839844 -2.253906 6.449219 -2.554688 6.09375 -2.789062 C 5.742188 -3.019531 5.421875 -3.109375 5.132812 -3.054688 Z M 5.132812 -3.054688 "/></g></g></g><g fill="#ffffff" fill-opacity="1"><g transform="translate(55.285855, 33.355326)"><g><path d="M 2.65625 -7.082031 C 2.761719 -7.125 2.890625 -7.121094 3.039062 -7.058594 C 3.1875 -6.996094 3.320312 -6.90625 3.445312 -6.785156 C 3.566406 -6.664062 3.652344 -6.523438 3.707031 -6.363281 C 3.757812 -6.203125 3.746094 -6.050781 3.671875 -5.90625 C 3.597656 -5.777344 3.457031 -5.566406 3.261719 -5.273438 C 3.0625 -4.980469 2.847656 -4.648438 2.609375 -4.277344 C 2.375 -3.902344 2.136719 -3.519531 1.898438 -3.125 C 1.660156 -2.730469 1.460938 -2.367188 1.300781 -2.042969 C 1.140625 -1.714844 1.042969 -1.441406 1.007812 -1.226562 C 0.976562 -1.007812 1.042969 -0.898438 1.207031 -0.890625 L 1.355469 -0.890625 C 1.699219 -0.988281 2.027344 -1.152344 2.34375 -1.378906 C 2.660156 -1.609375 2.960938 -1.867188 3.242188 -2.160156 C 3.527344 -2.453125 3.800781 -2.757812 4.054688 -3.078125 C 4.308594 -3.398438 4.550781 -3.703125 4.777344 -3.992188 C 4.824219 -4.035156 4.871094 -4.0625 4.925781 -4.066406 C 4.980469 -4.070312 5.023438 -4.058594 5.0625 -4.03125 C 5.101562 -4.003906 5.121094 -3.964844 5.121094 -3.917969 C 5.121094 -3.867188 5.09375 -3.808594 5.039062 -3.738281 C 4.820312 -3.4375 4.597656 -3.140625 4.371094 -2.855469 C 4.148438 -2.570312 3.917969 -2.296875 3.675781 -2.035156 C 3.4375 -1.773438 3.183594 -1.523438 2.914062 -1.28125 C 2.644531 -1.042969 2.355469 -0.8125 2.050781 -0.59375 C 1.976562 -0.539062 1.882812 -0.476562 1.773438 -0.40625 C 1.664062 -0.332031 1.539062 -0.265625 1.402344 -0.199219 C 1.265625 -0.136719 1.117188 -0.0820312 0.957031 -0.0390625 C 0.796875 0 0.636719 0.0234375 0.480469 0.0234375 C 0.289062 0.015625 0.140625 -0.0390625 0.0273438 -0.140625 C -0.0820312 -0.246094 -0.152344 -0.378906 -0.1875 -0.546875 C -0.222656 -0.714844 -0.222656 -0.90625 -0.195312 -1.125 C -0.164062 -1.339844 -0.101562 -1.570312 -0.0117188 -1.8125 C 0.0664062 -2.042969 0.171875 -2.296875 0.308594 -2.578125 C 0.445312 -2.859375 0.59375 -3.15625 0.757812 -3.472656 C 0.921875 -3.789062 1.09375 -4.109375 1.269531 -4.4375 C 1.449219 -4.761719 1.625 -5.082031 1.796875 -5.398438 C 1.96875 -5.714844 2.125 -6.015625 2.273438 -6.300781 C 2.421875 -6.585938 2.550781 -6.84375 2.65625 -7.082031 Z M 3.488281 -9.28125 C 3.777344 -9.304688 3.992188 -9.242188 4.128906 -9.097656 C 4.265625 -8.957031 4.300781 -8.761719 4.242188 -8.519531 C 4.347656 -8.664062 4.46875 -8.800781 4.605469 -8.929688 C 4.742188 -9.058594 4.882812 -9.167969 5.023438 -9.257812 C 5.164062 -9.351562 5.300781 -9.421875 5.433594 -9.476562 C 5.566406 -9.527344 5.6875 -9.554688 5.792969 -9.554688 C 5.9375 -9.570312 6.058594 -9.523438 6.15625 -9.414062 C 6.257812 -9.304688 6.289062 -9.179688 6.261719 -9.042969 C 6.230469 -8.875 6.152344 -8.726562 6.027344 -8.597656 C 5.902344 -8.46875 5.746094 -8.347656 5.558594 -8.238281 C 5.371094 -8.128906 5.167969 -8.027344 4.949219 -7.9375 C 4.726562 -7.84375 4.511719 -7.753906 4.304688 -7.664062 C 4.09375 -7.570312 3.902344 -7.476562 3.722656 -7.382812 C 3.542969 -7.289062 3.40625 -7.1875 3.308594 -7.082031 C 3.375 -7.285156 3.382812 -7.453125 3.324219 -7.578125 C 3.265625 -7.703125 3.195312 -7.820312 3.105469 -7.929688 C 3.019531 -8.039062 2.945312 -8.15625 2.878906 -8.277344 C 2.816406 -8.398438 2.804688 -8.558594 2.851562 -8.757812 C 2.875 -8.871094 2.941406 -8.984375 3.054688 -9.09375 C 3.171875 -9.203125 3.3125 -9.265625 3.488281 -9.28125 Z M 3.488281 -9.28125 "/></g></g></g><g fill="#ffffff" fill-opacity="1"><g transform="translate(59.014652, 33.355326)"><g><path d="M 4.308594 -7.082031 C 3.921875 -6.414062 3.554688 -5.792969 3.210938 -5.222656 C 2.863281 -4.652344 2.539062 -4.125 2.234375 -3.636719 C 1.929688 -3.152344 1.648438 -2.699219 1.386719 -2.28125 C 1.125 -1.863281 0.878906 -1.472656 0.648438 -1.105469 C 1.046875 -1.082031 1.421875 -1.171875 1.777344 -1.375 C 2.136719 -1.574219 2.46875 -1.832031 2.78125 -2.136719 C 3.09375 -2.445312 3.386719 -2.78125 3.667969 -3.140625 C 3.945312 -3.503906 4.207031 -3.835938 4.457031 -4.140625 C 4.488281 -4.183594 4.53125 -4.210938 4.582031 -4.21875 C 4.636719 -4.226562 4.683594 -4.21875 4.722656 -4.191406 C 4.757812 -4.164062 4.785156 -4.125 4.796875 -4.070312 C 4.804688 -4.019531 4.789062 -3.960938 4.742188 -3.898438 C 4.589844 -3.679688 4.457031 -3.484375 4.34375 -3.316406 C 4.230469 -3.152344 4.117188 -2.992188 4.003906 -2.839844 C 3.886719 -2.6875 3.765625 -2.53125 3.636719 -2.371094 C 3.507812 -2.210938 3.351562 -2.035156 3.171875 -1.835938 C 3.011719 -1.660156 2.828125 -1.488281 2.628906 -1.324219 C 2.425781 -1.15625 2.214844 -1.011719 1.988281 -0.890625 C 1.765625 -0.769531 1.535156 -0.675781 1.292969 -0.617188 C 1.054688 -0.554688 0.820312 -0.546875 0.59375 -0.59375 C 0.652344 -0.492188 0.695312 -0.402344 0.710938 -0.320312 C 0.730469 -0.234375 0.757812 -0.140625 0.785156 -0.0351562 C 0.832031 0.246094 0.835938 0.558594 0.792969 0.902344 C 0.75 1.242188 0.675781 1.589844 0.5625 1.9375 C 0.453125 2.289062 0.316406 2.628906 0.152344 2.960938 C -0.0078125 3.289062 -0.191406 3.582031 -0.386719 3.835938 C -0.585938 4.089844 -0.792969 4.296875 -1.007812 4.445312 C -1.226562 4.597656 -1.4375 4.675781 -1.640625 4.675781 C -1.921875 4.660156 -2.121094 4.546875 -2.234375 4.339844 C -2.347656 4.128906 -2.398438 3.878906 -2.382812 3.59375 L -2.382812 3.558594 C -2.316406 2.988281 -2.171875 2.40625 -1.957031 1.820312 C -1.738281 1.230469 -1.480469 0.640625 -1.1875 0.0585938 C -0.890625 -0.527344 -0.570312 -1.113281 -0.234375 -1.699219 C 0.105469 -2.285156 0.429688 -2.863281 0.742188 -3.433594 L 3.179688 -7.707031 C 3.371094 -8.035156 3.558594 -8.367188 3.746094 -8.707031 C 3.933594 -9.042969 4.109375 -9.375 4.277344 -9.691406 C 4.441406 -10.011719 4.59375 -10.316406 4.726562 -10.609375 C 4.859375 -10.902344 4.96875 -11.171875 5.050781 -11.414062 C 5.144531 -11.46875 5.265625 -11.464844 5.417969 -11.402344 C 5.570312 -11.34375 5.710938 -11.253906 5.84375 -11.136719 C 5.976562 -11.015625 6.078125 -10.875 6.144531 -10.714844 C 6.214844 -10.550781 6.214844 -10.390625 6.144531 -10.238281 C 6.101562 -10.125 6.015625 -9.953125 5.890625 -9.726562 C 5.765625 -9.5 5.617188 -9.238281 5.445312 -8.945312 C 5.273438 -8.652344 5.089844 -8.34375 4.890625 -8.015625 C 4.695312 -7.6875 4.5 -7.378906 4.308594 -7.082031 Z M -1.128906 4.046875 C -0.847656 3.867188 -0.605469 3.601562 -0.40625 3.253906 C -0.203125 2.910156 -0.046875 2.53125 0.0703125 2.121094 C 0.183594 1.710938 0.246094 1.292969 0.261719 0.867188 C 0.277344 0.441406 0.238281 0.0585938 0.148438 -0.285156 C -0.0859375 0.125 -0.296875 0.503906 -0.484375 0.855469 C -0.671875 1.203125 -0.832031 1.542969 -0.96875 1.871094 C -1.105469 2.195312 -1.222656 2.515625 -1.316406 2.828125 C -1.410156 3.140625 -1.484375 3.460938 -1.539062 3.796875 C -1.546875 3.949219 -1.527344 4.054688 -1.480469 4.117188 C -1.4375 4.175781 -1.320312 4.15625 -1.128906 4.046875 Z M -1.128906 4.046875 "/></g></g></g><g fill="#ffffff" fill-opacity="1"><g transform="translate(62.332937, 33.355326)"><g><path d="M 1.902344 -2.726562 C 1.890625 -2.6875 1.882812 -2.664062 1.882812 -2.65625 C 2.65625 -2.878906 3.375 -3.222656 4.03125 -3.695312 C 4.6875 -4.164062 5.234375 -4.765625 5.667969 -5.496094 C 5.75 -5.632812 5.808594 -5.761719 5.839844 -5.878906 C 5.867188 -5.996094 5.871094 -6.097656 5.84375 -6.1875 C 5.816406 -6.273438 5.765625 -6.335938 5.683594 -6.375 C 5.605469 -6.414062 5.5 -6.417969 5.371094 -6.398438 C 5.097656 -6.34375 4.832031 -6.246094 4.574219 -6.101562 C 4.3125 -5.957031 4.066406 -5.78125 3.832031 -5.574219 C 3.597656 -5.371094 3.375 -5.144531 3.171875 -4.890625 C 2.964844 -4.640625 2.777344 -4.386719 2.609375 -4.132812 C 2.445312 -3.878906 2.300781 -3.628906 2.183594 -3.386719 C 2.066406 -3.144531 1.972656 -2.921875 1.902344 -2.726562 Z M 0.183594 -1.847656 C 0.21875 -2.386719 0.363281 -2.921875 0.617188 -3.457031 C 0.867188 -3.988281 1.253906 -4.566406 1.777344 -5.1875 C 1.945312 -5.386719 2.167969 -5.601562 2.441406 -5.832031 C 2.714844 -6.066406 3.015625 -6.277344 3.347656 -6.472656 C 3.675781 -6.664062 4.023438 -6.824219 4.390625 -6.949219 C 4.753906 -7.074219 5.113281 -7.132812 5.460938 -7.125 C 5.683594 -7.121094 5.871094 -7.0625 6.027344 -6.960938 C 6.183594 -6.859375 6.289062 -6.722656 6.347656 -6.550781 C 6.402344 -6.378906 6.40625 -6.179688 6.351562 -5.945312 C 6.296875 -5.714844 6.171875 -5.46875 5.976562 -5.210938 C 5.488281 -4.4375 4.878906 -3.796875 4.152344 -3.296875 C 3.421875 -2.792969 2.628906 -2.425781 1.777344 -2.1875 L 1.757812 -2.15625 C 1.726562 -1.980469 1.710938 -1.804688 1.710938 -1.625 C 1.710938 -1.445312 1.734375 -1.277344 1.785156 -1.125 C 1.832031 -0.96875 1.910156 -0.835938 2.019531 -0.730469 C 2.125 -0.625 2.273438 -0.554688 2.464844 -0.523438 C 2.667969 -0.492188 2.921875 -0.535156 3.222656 -0.648438 C 3.523438 -0.765625 3.839844 -0.929688 4.171875 -1.152344 C 4.507812 -1.371094 4.84375 -1.632812 5.175781 -1.9375 C 5.511719 -2.242188 5.820312 -2.566406 6.101562 -2.90625 C 6.277344 -3.121094 6.429688 -3.332031 6.5625 -3.539062 C 6.695312 -3.75 6.824219 -3.949219 6.945312 -4.140625 C 6.988281 -4.183594 7.042969 -4.210938 7.097656 -4.21875 C 7.15625 -4.226562 7.203125 -4.21875 7.242188 -4.191406 C 7.277344 -4.164062 7.304688 -4.125 7.320312 -4.070312 C 7.335938 -4.019531 7.320312 -3.960938 7.273438 -3.898438 C 7.121094 -3.695312 6.964844 -3.472656 6.800781 -3.234375 C 6.636719 -2.992188 6.457031 -2.75 6.253906 -2.503906 C 6.054688 -2.257812 5.832031 -2.003906 5.59375 -1.75 C 5.355469 -1.496094 5.085938 -1.246094 4.789062 -1.003906 C 4.394531 -0.683594 4.042969 -0.441406 3.734375 -0.273438 C 3.425781 -0.105469 3.15625 0.0117188 2.917969 0.078125 C 2.683594 0.148438 2.484375 0.183594 2.320312 0.1875 C 2.15625 0.191406 2.023438 0.195312 1.914062 0.195312 C 1.597656 0.195312 1.324219 0.140625 1.101562 0.0351562 C 0.875 -0.0703125 0.695312 -0.214844 0.554688 -0.398438 C 0.414062 -0.582031 0.3125 -0.796875 0.25 -1.042969 C 0.191406 -1.289062 0.167969 -1.558594 0.183594 -1.847656 Z M 0.183594 -1.847656 "/></g></g></g><g fill="#ffffff" fill-opacity="1"><g transform="translate(68.216892, 33.355326)"><g/></g></g><g fill="#ffffff" fill-opacity="1"><g transform="translate(73.838579, 33.355326)"><g><path d="M 11.402344 -2.726562 C 11.296875 -1.882812 11.050781 -1.140625 10.660156 -0.5 C 10.273438 0.136719 9.796875 0.671875 9.230469 1.105469 C 8.664062 1.539062 8.027344 1.867188 7.320312 2.09375 C 6.613281 2.316406 5.886719 2.433594 5.144531 2.441406 C 4.761719 2.449219 4.363281 2.414062 3.945312 2.335938 C 3.527344 2.261719 3.117188 2.144531 2.71875 1.988281 C 2.320312 1.832031 1.949219 1.628906 1.609375 1.378906 C 1.265625 1.128906 0.984375 0.832031 0.765625 0.484375 C 0.542969 0.140625 0.402344 -0.257812 0.335938 -0.703125 C 0.273438 -1.144531 0.316406 -1.644531 0.46875 -2.199219 C 0.589844 -2.65625 0.816406 -3.082031 1.144531 -3.476562 C 1.476562 -3.875 1.886719 -4.195312 2.378906 -4.445312 C 2.867188 -4.699219 3.425781 -4.855469 4.054688 -4.921875 C 4.679688 -4.984375 5.347656 -4.910156 6.054688 -4.699219 C 6.132812 -4.675781 6.222656 -4.636719 6.335938 -4.582031 C 6.445312 -4.53125 6.527344 -4.476562 6.585938 -4.425781 C 6.640625 -4.371094 6.652344 -4.328125 6.621094 -4.300781 C 6.585938 -4.269531 6.460938 -4.269531 6.25 -4.300781 C 5.558594 -4.398438 4.957031 -4.375 4.453125 -4.230469 C 3.949219 -4.085938 3.523438 -3.871094 3.179688 -3.585938 C 2.839844 -3.300781 2.574219 -2.972656 2.390625 -2.605469 C 2.203125 -2.238281 2.082031 -1.878906 2.03125 -1.527344 C 1.96875 -1.171875 1.996094 -0.8125 2.109375 -0.457031 C 2.222656 -0.0976562 2.402344 0.222656 2.644531 0.511719 C 2.890625 0.800781 3.1875 1.039062 3.546875 1.226562 C 3.902344 1.410156 4.300781 1.507812 4.742188 1.515625 C 5.199219 1.523438 5.640625 1.464844 6.070312 1.335938 C 6.5 1.203125 6.90625 1.023438 7.28125 0.792969 C 7.65625 0.5625 8 0.285156 8.308594 -0.0273438 C 8.613281 -0.34375 8.878906 -0.683594 9.09375 -1.050781 C 9.308594 -1.414062 9.476562 -1.792969 9.589844 -2.183594 C 9.703125 -2.574219 9.753906 -2.960938 9.738281 -3.339844 C 9.714844 -3.902344 9.648438 -4.464844 9.539062 -5.023438 C 9.429688 -5.582031 9.316406 -6.140625 9.203125 -6.703125 C 8.867188 -6.589844 8.542969 -6.480469 8.234375 -6.375 C 7.921875 -6.269531 7.621094 -6.160156 7.332031 -6.054688 C 7.363281 -6.390625 7.332031 -6.703125 7.246094 -6.996094 C 7.160156 -7.289062 7.039062 -7.566406 6.882812 -7.832031 C 6.726562 -8.101562 6.550781 -8.367188 6.355469 -8.632812 C 6.164062 -8.898438 5.976562 -9.171875 5.792969 -9.453125 C 5.609375 -9.734375 5.445312 -10.03125 5.296875 -10.347656 C 5.148438 -10.664062 5.042969 -11.011719 4.984375 -11.390625 C 4.929688 -11.726562 4.933594 -12.082031 4.996094 -12.464844 C 5.054688 -12.84375 5.191406 -13.199219 5.40625 -13.53125 C 5.617188 -13.859375 5.910156 -14.140625 6.28125 -14.375 C 6.65625 -14.605469 7.125 -14.734375 7.695312 -14.753906 C 8.265625 -14.785156 8.769531 -14.699219 9.203125 -14.5 C 9.636719 -14.296875 10.011719 -14.027344 10.332031 -13.683594 C 10.566406 -13.933594 10.828125 -14.167969 11.117188 -14.386719 C 11.40625 -14.601562 11.71875 -14.789062 12.058594 -14.949219 C 12.398438 -15.109375 12.761719 -15.234375 13.152344 -15.324219 C 13.542969 -15.417969 13.960938 -15.460938 14.402344 -15.460938 C 14.835938 -15.460938 15.238281 -15.394531 15.617188 -15.257812 C 15.992188 -15.121094 16.3125 -14.921875 16.574219 -14.664062 C 16.835938 -14.40625 17.027344 -14.089844 17.144531 -13.71875 C 17.261719 -13.34375 17.28125 -12.929688 17.207031 -12.476562 C 17.101562 -11.851562 16.84375 -11.28125 16.4375 -10.769531 C 16.03125 -10.257812 15.527344 -9.789062 14.933594 -9.367188 C 14.335938 -8.945312 13.671875 -8.558594 12.9375 -8.210938 C 12.203125 -7.859375 11.460938 -7.542969 10.707031 -7.253906 C 10.8125 -6.894531 10.917969 -6.53125 11.019531 -6.15625 C 11.125 -5.785156 11.210938 -5.410156 11.28125 -5.027344 C 11.355469 -4.648438 11.40625 -4.265625 11.429688 -3.882812 C 11.457031 -3.5 11.449219 -3.113281 11.402344 -2.726562 Z M 11.300781 -9.519531 C 11.332031 -10.046875 11.28125 -10.523438 11.15625 -10.953125 C 11.03125 -11.382812 10.859375 -11.769531 10.640625 -12.109375 C 10.351562 -11.636719 10.183594 -11.132812 10.136719 -10.59375 C 10.097656 -10.167969 10.121094 -9.730469 10.207031 -9.277344 C 10.289062 -8.824219 10.398438 -8.355469 10.535156 -7.867188 C 11.113281 -8.082031 11.710938 -8.332031 12.328125 -8.625 C 12.941406 -8.917969 13.511719 -9.253906 14.035156 -9.628906 C 14.5625 -10.007812 15.003906 -10.425781 15.359375 -10.890625 C 15.71875 -11.351562 15.929688 -11.863281 16 -12.417969 C 16.019531 -12.578125 16.011719 -12.757812 15.976562 -12.960938 C 15.9375 -13.160156 15.851562 -13.347656 15.71875 -13.523438 C 15.585938 -13.699219 15.390625 -13.839844 15.136719 -13.953125 C 14.882812 -14.0625 14.546875 -14.113281 14.128906 -14.105469 C 13.480469 -14.082031 12.894531 -13.9375 12.359375 -13.667969 C 11.828125 -13.398438 11.378906 -13.046875 11.015625 -12.621094 C 11.242188 -12.121094 11.382812 -11.59375 11.429688 -11.042969 C 11.480469 -10.492188 11.4375 -9.984375 11.300781 -9.519531 Z M 8.917969 -11.082031 C 8.984375 -11.402344 9.09375 -11.726562 9.242188 -12.058594 C 9.390625 -12.390625 9.578125 -12.714844 9.804688 -13.035156 C 9.519531 -13.253906 9.214844 -13.417969 8.898438 -13.523438 C 8.585938 -13.628906 8.273438 -13.675781 7.96875 -13.660156 C 7.8125 -13.652344 7.613281 -13.605469 7.378906 -13.519531 C 7.140625 -13.429688 6.929688 -13.28125 6.738281 -13.074219 C 6.550781 -12.863281 6.414062 -12.585938 6.328125 -12.234375 C 6.246094 -11.886719 6.277344 -11.445312 6.417969 -10.914062 C 6.527344 -10.515625 6.664062 -10.15625 6.835938 -9.828125 C 7.007812 -9.503906 7.175781 -9.1875 7.335938 -8.882812 C 7.5 -8.578125 7.644531 -8.28125 7.765625 -7.988281 C 7.886719 -7.695312 7.953125 -7.386719 7.960938 -7.058594 C 8.089844 -7.097656 8.246094 -7.140625 8.433594 -7.191406 C 8.617188 -7.238281 8.828125 -7.300781 9.066406 -7.378906 C 8.9375 -8.023438 8.847656 -8.65625 8.796875 -9.269531 C 8.746094 -9.886719 8.789062 -10.492188 8.917969 -11.082031 Z M 8.917969 -11.082031 "/></g></g></g><g fill="#ffffff" fill-opacity="1"><g transform="translate(86.427514, 33.355326)"><g><path d="M 6.578125 -5.074219 C 6.625 -4.695312 6.609375 -4.300781 6.535156 -3.894531 C 6.457031 -3.488281 6.332031 -3.089844 6.15625 -2.695312 C 5.984375 -2.304688 5.769531 -1.929688 5.519531 -1.574219 C 5.269531 -1.214844 4.988281 -0.90625 4.679688 -0.636719 C 4.371094 -0.371094 4.046875 -0.160156 3.707031 -0.00390625 C 3.363281 0.148438 3.015625 0.222656 2.65625 0.214844 C 2.078125 0.214844 1.570312 0.0429688 1.132812 -0.308594 C 0.699219 -0.65625 0.402344 -1.1875 0.25 -1.894531 C 0.160156 -2.273438 0.152344 -2.679688 0.226562 -3.113281 C 0.304688 -3.546875 0.441406 -3.972656 0.636719 -4.394531 C 0.835938 -4.816406 1.089844 -5.21875 1.398438 -5.597656 C 1.703125 -5.980469 2.046875 -6.308594 2.421875 -6.589844 C 2.800781 -6.871094 3.199219 -7.085938 3.625 -7.234375 C 4.050781 -7.382812 4.480469 -7.433594 4.914062 -7.390625 C 5.148438 -7.359375 5.351562 -7.296875 5.511719 -7.199219 C 5.675781 -7.105469 5.808594 -6.992188 5.914062 -6.863281 C 6.015625 -6.734375 6.089844 -6.589844 6.140625 -6.429688 C 6.191406 -6.273438 6.21875 -6.113281 6.226562 -5.953125 C 6.316406 -5.847656 6.390625 -5.714844 6.449219 -5.566406 C 6.503906 -5.414062 6.550781 -5.25 6.578125 -5.074219 Z M 4.652344 -4.34375 C 4.613281 -4.359375 4.585938 -4.40625 4.566406 -4.480469 C 4.546875 -4.558594 4.535156 -4.644531 4.53125 -4.742188 C 4.527344 -4.84375 4.527344 -4.945312 4.527344 -5.050781 C 4.527344 -5.15625 4.53125 -5.253906 4.539062 -5.335938 C 4.546875 -5.429688 4.585938 -5.515625 4.65625 -5.605469 C 4.730469 -5.691406 4.808594 -5.769531 4.890625 -5.839844 C 4.976562 -5.90625 5.058594 -5.964844 5.136719 -6.007812 C 5.21875 -6.054688 5.273438 -6.085938 5.300781 -6.101562 C 5.429688 -6.160156 5.550781 -6.195312 5.65625 -6.203125 C 5.640625 -6.355469 5.578125 -6.476562 5.46875 -6.566406 C 5.359375 -6.660156 5.15625 -6.699219 4.867188 -6.683594 C 4.625 -6.660156 4.355469 -6.570312 4.054688 -6.417969 C 3.753906 -6.269531 3.480469 -6.070312 3.238281 -5.828125 C 2.964844 -5.546875 2.71875 -5.226562 2.503906 -4.867188 C 2.285156 -4.511719 2.109375 -4.148438 1.96875 -3.78125 C 1.828125 -3.410156 1.734375 -3.046875 1.6875 -2.691406 C 1.640625 -2.332031 1.652344 -2.011719 1.714844 -1.726562 C 1.78125 -1.441406 1.90625 -1.207031 2.09375 -1.027344 C 2.277344 -0.84375 2.539062 -0.742188 2.875 -0.71875 C 3.140625 -0.703125 3.402344 -0.761719 3.667969 -0.890625 C 3.929688 -1.019531 4.179688 -1.199219 4.417969 -1.425781 C 4.65625 -1.652344 4.878906 -1.917969 5.085938 -2.21875 C 5.289062 -2.519531 5.46875 -2.832031 5.617188 -3.160156 C 5.765625 -3.484375 5.882812 -3.8125 5.96875 -4.140625 C 6.058594 -4.464844 6.097656 -4.769531 6.089844 -5.050781 C 6.089844 -5.265625 6.011719 -5.382812 5.859375 -5.40625 C 5.753906 -5.421875 5.636719 -5.394531 5.5 -5.324219 C 5.367188 -5.257812 5.242188 -5.167969 5.121094 -5.058594 C 5 -4.945312 4.894531 -4.828125 4.804688 -4.699219 C 4.71875 -4.570312 4.667969 -4.449219 4.652344 -4.34375 Z M 4.652344 -4.34375 "/></g></g></g><g fill="#ffffff" fill-opacity="1"><g transform="translate(93.018439, 33.355326)"><g><path d="M 6.179688 -7.082031 C 6.285156 -7.125 6.417969 -7.121094 6.574219 -7.058594 C 6.730469 -6.996094 6.871094 -6.90625 7 -6.785156 C 7.128906 -6.664062 7.230469 -6.523438 7.296875 -6.363281 C 7.367188 -6.203125 7.371094 -6.050781 7.308594 -5.90625 C 7.25 -5.777344 7.132812 -5.566406 6.96875 -5.273438 C 6.800781 -4.980469 6.617188 -4.648438 6.414062 -4.277344 C 6.210938 -3.902344 6.015625 -3.519531 5.820312 -3.125 C 5.628906 -2.730469 5.46875 -2.367188 5.34375 -2.042969 C 5.21875 -1.714844 5.148438 -1.441406 5.132812 -1.226562 C 5.117188 -1.007812 5.191406 -0.898438 5.359375 -0.890625 L 5.542969 -0.890625 C 5.867188 -0.988281 6.183594 -1.160156 6.484375 -1.410156 C 6.78125 -1.65625 7.0625 -1.933594 7.328125 -2.242188 C 7.589844 -2.546875 7.832031 -2.871094 8.0625 -3.210938 C 8.289062 -3.546875 8.503906 -3.859375 8.699219 -4.140625 C 8.738281 -4.183594 8.785156 -4.210938 8.84375 -4.21875 C 8.898438 -4.226562 8.949219 -4.21875 8.992188 -4.191406 C 9.03125 -4.164062 9.058594 -4.125 9.070312 -4.070312 C 9.082031 -4.019531 9.066406 -3.960938 9.019531 -3.898438 C 8.816406 -3.609375 8.609375 -3.316406 8.402344 -3.015625 C 8.199219 -2.714844 7.984375 -2.421875 7.765625 -2.136719 C 7.546875 -1.851562 7.3125 -1.578125 7.070312 -1.316406 C 6.828125 -1.054688 6.5625 -0.8125 6.28125 -0.59375 C 6.214844 -0.539062 6.128906 -0.476562 6.019531 -0.40625 C 5.914062 -0.332031 5.792969 -0.265625 5.65625 -0.199219 C 5.519531 -0.136719 5.371094 -0.0820312 5.21875 -0.0390625 C 5.0625 0 4.898438 0.0234375 4.730469 0.0234375 C 4.535156 0.015625 4.371094 -0.0390625 4.246094 -0.140625 C 4.121094 -0.246094 4.027344 -0.378906 3.96875 -0.546875 C 3.90625 -0.714844 3.878906 -0.90625 3.886719 -1.125 C 3.894531 -1.339844 3.933594 -1.570312 4.003906 -1.8125 C 4.019531 -1.902344 4.039062 -1.996094 4.070312 -2.085938 C 4.101562 -2.179688 4.136719 -2.273438 4.171875 -2.371094 C 3.929688 -2.039062 3.671875 -1.71875 3.398438 -1.414062 C 3.125 -1.109375 2.824219 -0.835938 2.496094 -0.59375 C 2.429688 -0.539062 2.339844 -0.476562 2.234375 -0.40625 C 2.128906 -0.332031 2.007812 -0.265625 1.875 -0.199219 C 1.742188 -0.136719 1.601562 -0.0820312 1.449219 -0.0390625 C 1.296875 0 1.136719 0.0234375 0.96875 0.0234375 C 0.773438 0.015625 0.613281 -0.0390625 0.492188 -0.140625 C 0.367188 -0.246094 0.28125 -0.378906 0.222656 -0.546875 C 0.164062 -0.714844 0.140625 -0.90625 0.148438 -1.125 C 0.15625 -1.339844 0.191406 -1.570312 0.25 -1.8125 C 0.34375 -2.15625 0.484375 -2.554688 0.679688 -3.015625 C 0.871094 -3.476562 1.078125 -3.949219 1.292969 -4.4375 C 1.511719 -4.921875 1.722656 -5.398438 1.925781 -5.859375 C 2.132812 -6.324219 2.296875 -6.730469 2.417969 -7.082031 C 2.523438 -7.125 2.652344 -7.121094 2.804688 -7.058594 C 2.957031 -6.996094 3.097656 -6.90625 3.226562 -6.785156 C 3.355469 -6.664062 3.457031 -6.523438 3.523438 -6.363281 C 3.59375 -6.203125 3.597656 -6.050781 3.535156 -5.90625 C 3.472656 -5.777344 3.363281 -5.566406 3.199219 -5.273438 C 3.035156 -4.980469 2.855469 -4.648438 2.65625 -4.277344 C 2.460938 -3.902344 2.261719 -3.519531 2.0625 -3.125 C 1.867188 -2.730469 1.703125 -2.367188 1.578125 -2.042969 C 1.453125 -1.714844 1.382812 -1.441406 1.367188 -1.226562 C 1.351562 -1.007812 1.429688 -0.898438 1.597656 -0.890625 L 1.765625 -0.890625 C 2.085938 -0.980469 2.390625 -1.140625 2.675781 -1.375 C 2.960938 -1.605469 3.230469 -1.871094 3.488281 -2.167969 C 3.746094 -2.464844 3.992188 -2.773438 4.21875 -3.097656 C 4.445312 -3.417969 4.660156 -3.722656 4.859375 -4.003906 C 4.980469 -4.277344 5.105469 -4.554688 5.234375 -4.835938 C 5.363281 -5.117188 5.484375 -5.390625 5.597656 -5.660156 C 5.710938 -5.929688 5.820312 -6.1875 5.921875 -6.425781 C 6.027344 -6.664062 6.113281 -6.882812 6.179688 -7.082031 Z M 6.179688 -7.082031 "/></g></g></g><g fill="#ffffff" fill-opacity="1"><g transform="translate(100.601426, 33.355326)"><g><path d="M 5.90625 -2.417969 C 5.6875 -2.136719 5.4375 -1.847656 5.160156 -1.554688 C 4.882812 -1.265625 4.585938 -1 4.269531 -0.769531 C 3.953125 -0.539062 3.628906 -0.347656 3.296875 -0.199219 C 2.960938 -0.0507812 2.621094 0.015625 2.28125 0 C 2.097656 -0.0078125 1.941406 -0.046875 1.8125 -0.113281 C 1.683594 -0.183594 1.582031 -0.273438 1.503906 -0.386719 C 1.429688 -0.5 1.375 -0.632812 1.34375 -0.78125 C 1.316406 -0.929688 1.3125 -1.082031 1.335938 -1.242188 C 1.371094 -1.53125 1.449219 -1.804688 1.566406 -2.058594 C 1.6875 -2.3125 1.828125 -2.558594 1.988281 -2.800781 C 2.152344 -3.039062 2.335938 -3.277344 2.539062 -3.519531 C 2.738281 -3.757812 2.941406 -4.007812 3.148438 -4.265625 C 3.285156 -4.433594 3.417969 -4.597656 3.550781 -4.761719 C 3.683594 -4.925781 3.800781 -5.070312 3.898438 -5.199219 C 4 -5.328125 4.070312 -5.429688 4.117188 -5.507812 C 4.160156 -5.582031 4.160156 -5.617188 4.117188 -5.609375 C 3.972656 -5.585938 3.851562 -5.5625 3.75 -5.535156 C 3.652344 -5.507812 3.558594 -5.484375 3.472656 -5.460938 C 3.386719 -5.4375 3.296875 -5.421875 3.203125 -5.410156 C 3.113281 -5.398438 3 -5.394531 2.863281 -5.394531 C 2.808594 -5.394531 2.757812 -5.394531 2.714844 -5.394531 C 2.667969 -5.394531 2.625 -5.398438 2.589844 -5.40625 C 2.335938 -5.117188 2.101562 -4.816406 1.875 -4.511719 C 1.652344 -4.203125 1.441406 -3.90625 1.242188 -3.625 C 1.203125 -3.582031 1.160156 -3.554688 1.105469 -3.546875 C 1.054688 -3.539062 1.007812 -3.546875 0.96875 -3.574219 C 0.929688 -3.601562 0.910156 -3.640625 0.902344 -3.695312 C 0.894531 -3.746094 0.914062 -3.804688 0.957031 -3.867188 C 1.171875 -4.167969 1.371094 -4.460938 1.5625 -4.738281 C 1.753906 -5.015625 1.953125 -5.300781 2.167969 -5.597656 C 2.058594 -5.683594 2.007812 -5.792969 2.007812 -5.933594 C 2.007812 -6.074219 2.042969 -6.230469 2.109375 -6.398438 C 2.179688 -6.5625 2.265625 -6.738281 2.378906 -6.914062 C 2.488281 -7.09375 2.601562 -7.265625 2.71875 -7.433594 C 2.835938 -7.601562 2.949219 -7.757812 3.050781 -7.90625 C 3.152344 -8.054688 3.226562 -8.179688 3.273438 -8.277344 C 3.386719 -8.234375 3.5 -8.175781 3.609375 -8.109375 C 3.71875 -8.039062 3.808594 -7.953125 3.878906 -7.851562 C 3.945312 -7.75 3.980469 -7.621094 3.984375 -7.476562 C 3.988281 -7.328125 3.941406 -7.148438 3.84375 -6.945312 L 3.171875 -6.101562 C 3.125 -6.046875 3.15625 -6.027344 3.261719 -6.042969 C 3.367188 -6.058594 3.515625 -6.09375 3.707031 -6.152344 C 3.894531 -6.207031 4.113281 -6.28125 4.355469 -6.375 C 4.597656 -6.464844 4.832031 -6.558594 5.058594 -6.652344 C 5.28125 -6.75 5.480469 -6.839844 5.648438 -6.933594 C 5.820312 -7.023438 5.933594 -7.097656 5.988281 -7.148438 C 6.015625 -7.148438 6.058594 -7.128906 6.113281 -7.09375 C 6.164062 -7.054688 6.21875 -7.011719 6.273438 -6.96875 C 6.324219 -6.921875 6.371094 -6.875 6.414062 -6.832031 C 6.457031 -6.785156 6.480469 -6.753906 6.488281 -6.738281 C 6.570312 -6.601562 6.554688 -6.417969 6.4375 -6.179688 C 6.320312 -5.945312 6.140625 -5.679688 5.90625 -5.382812 C 5.671875 -5.085938 5.398438 -4.761719 5.085938 -4.414062 C 4.773438 -4.0625 4.464844 -3.707031 4.160156 -3.339844 C 4.054688 -3.226562 3.941406 -3.09375 3.8125 -2.941406 C 3.6875 -2.789062 3.566406 -2.628906 3.449219 -2.464844 C 3.332031 -2.296875 3.226562 -2.132812 3.136719 -1.972656 C 3.042969 -1.8125 2.984375 -1.667969 2.960938 -1.539062 C 2.933594 -1.410156 2.945312 -1.304688 3 -1.21875 C 3.050781 -1.136719 3.167969 -1.089844 3.339844 -1.082031 C 3.457031 -1.082031 3.605469 -1.125 3.792969 -1.203125 C 3.976562 -1.28125 4.175781 -1.394531 4.382812 -1.535156 C 4.59375 -1.675781 4.804688 -1.839844 5.023438 -2.035156 C 5.238281 -2.230469 5.433594 -2.441406 5.609375 -2.667969 C 5.824219 -2.949219 6.015625 -3.21875 6.191406 -3.476562 C 6.367188 -3.738281 6.519531 -3.957031 6.648438 -4.140625 C 6.6875 -4.183594 6.730469 -4.210938 6.785156 -4.21875 C 6.839844 -4.226562 6.886719 -4.21875 6.925781 -4.191406 C 6.96875 -4.164062 6.992188 -4.125 7 -4.070312 C 7.007812 -4.019531 6.984375 -3.960938 6.933594 -3.898438 C 6.765625 -3.65625 6.597656 -3.40625 6.425781 -3.152344 C 6.253906 -2.898438 6.082031 -2.652344 5.90625 -2.417969 Z M 5.90625 -2.417969 "/></g></g></g><g fill="#ffffff" fill-opacity="1"><g transform="translate(106.109088, 33.355326)"><g><path d="M 7.273438 -3.898438 C 7.121094 -3.695312 6.964844 -3.472656 6.800781 -3.234375 C 6.636719 -2.992188 6.457031 -2.75 6.253906 -2.503906 C 6.054688 -2.257812 5.832031 -2.003906 5.59375 -1.75 C 5.355469 -1.496094 5.085938 -1.246094 4.789062 -1.003906 C 4.394531 -0.683594 4.042969 -0.441406 3.734375 -0.273438 C 3.425781 -0.105469 3.15625 0.0117188 2.917969 0.078125 C 2.683594 0.148438 2.484375 0.183594 2.320312 0.1875 C 2.15625 0.191406 2.023438 0.195312 1.914062 0.195312 C 1.597656 0.195312 1.324219 0.140625 1.101562 0.0351562 C 0.875 -0.0703125 0.695312 -0.214844 0.554688 -0.398438 C 0.414062 -0.582031 0.3125 -0.796875 0.25 -1.042969 C 0.191406 -1.289062 0.167969 -1.558594 0.183594 -1.847656 C 0.21875 -2.386719 0.363281 -2.921875 0.617188 -3.457031 C 0.867188 -3.988281 1.253906 -4.566406 1.777344 -5.1875 C 1.945312 -5.386719 2.167969 -5.601562 2.441406 -5.832031 C 2.714844 -6.066406 3.015625 -6.277344 3.347656 -6.472656 C 3.675781 -6.664062 4.023438 -6.824219 4.390625 -6.949219 C 4.753906 -7.074219 5.113281 -7.132812 5.460938 -7.125 C 5.683594 -7.121094 5.867188 -7.0625 6.015625 -6.960938 C 6.164062 -6.859375 6.265625 -6.722656 6.316406 -6.550781 C 6.371094 -6.378906 6.371094 -6.183594 6.316406 -5.964844 C 6.265625 -5.742188 6.152344 -5.511719 5.988281 -5.269531 C 5.902344 -5.183594 5.820312 -5.167969 5.734375 -5.21875 C 5.652344 -5.265625 5.625 -5.351562 5.65625 -5.472656 C 5.746094 -5.609375 5.808594 -5.742188 5.839844 -5.867188 C 5.867188 -5.992188 5.871094 -6.097656 5.851562 -6.1875 C 5.828125 -6.273438 5.777344 -6.335938 5.695312 -6.375 C 5.617188 -6.414062 5.507812 -6.417969 5.371094 -6.398438 C 5.097656 -6.34375 4.832031 -6.246094 4.574219 -6.101562 C 4.3125 -5.957031 4.066406 -5.78125 3.832031 -5.574219 C 3.597656 -5.371094 3.375 -5.144531 3.171875 -4.890625 C 2.964844 -4.640625 2.777344 -4.386719 2.609375 -4.132812 C 2.445312 -3.878906 2.300781 -3.628906 2.183594 -3.386719 C 2.066406 -3.144531 1.972656 -2.921875 1.902344 -2.726562 C 1.84375 -2.550781 1.792969 -2.34375 1.75 -2.109375 C 1.707031 -1.875 1.699219 -1.644531 1.722656 -1.417969 C 1.746094 -1.195312 1.8125 -1 1.925781 -0.832031 C 2.042969 -0.664062 2.21875 -0.5625 2.464844 -0.523438 C 2.667969 -0.492188 2.921875 -0.535156 3.222656 -0.648438 C 3.523438 -0.765625 3.839844 -0.929688 4.171875 -1.152344 C 4.507812 -1.371094 4.84375 -1.632812 5.175781 -1.9375 C 5.511719 -2.242188 5.820312 -2.566406 6.101562 -2.90625 C 6.277344 -3.121094 6.429688 -3.332031 6.5625 -3.539062 C 6.695312 -3.75 6.824219 -3.949219 6.945312 -4.140625 C 6.988281 -4.183594 7.042969 -4.210938 7.097656 -4.21875 C 7.15625 -4.226562 7.203125 -4.21875 7.242188 -4.191406 C 7.277344 -4.164062 7.304688 -4.125 7.320312 -4.070312 C 7.335938 -4.019531 7.320312 -3.960938 7.273438 -3.898438 Z M 7.273438 -3.898438 "/></g></g></g><g clip-path="url(#0dde7e29c2)"><g fill="#ffffff" fill-opacity="1"><g transform="translate(112.107068, 33.355326)"><g><path d="M 1.902344 -2.726562 C 1.890625 -2.6875 1.882812 -2.664062 1.882812 -2.65625 C 2.65625 -2.878906 3.375 -3.222656 4.03125 -3.695312 C 4.6875 -4.164062 5.234375 -4.765625 5.667969 -5.496094 C 5.75 -5.632812 5.808594 -5.761719 5.839844 -5.878906 C 5.867188 -5.996094 5.871094 -6.097656 5.84375 -6.1875 C 5.816406 -6.273438 5.765625 -6.335938 5.683594 -6.375 C 5.605469 -6.414062 5.5 -6.417969 5.371094 -6.398438 C 5.097656 -6.34375 4.832031 -6.246094 4.574219 -6.101562 C 4.3125 -5.957031 4.066406 -5.78125 3.832031 -5.574219 C 3.597656 -5.371094 3.375 -5.144531 3.171875 -4.890625 C 2.964844 -4.640625 2.777344 -4.386719 2.609375 -4.132812 C 2.445312 -3.878906 2.300781 -3.628906 2.183594 -3.386719 C 2.066406 -3.144531 1.972656 -2.921875 1.902344 -2.726562 Z M 0.183594 -1.847656 C 0.21875 -2.386719 0.363281 -2.921875 0.617188 -3.457031 C 0.867188 -3.988281 1.253906 -4.566406 1.777344 -5.1875 C 1.945312 -5.386719 2.167969 -5.601562 2.441406 -5.832031 C 2.714844 -6.066406 3.015625 -6.277344 3.347656 -6.472656 C 3.675781 -6.664062 4.023438 -6.824219 4.390625 -6.949219 C 4.753906 -7.074219 5.113281 -7.132812 5.460938 -7.125 C 5.683594 -7.121094 5.871094 -7.0625 6.027344 -6.960938 C 6.183594 -6.859375 6.289062 -6.722656 6.347656 -6.550781 C 6.402344 -6.378906 6.40625 -6.179688 6.351562 -5.945312 C 6.296875 -5.714844 6.171875 -5.46875 5.976562 -5.210938 C 5.488281 -4.4375 4.878906 -3.796875 4.152344 -3.296875 C 3.421875 -2.792969 2.628906 -2.425781 1.777344 -2.1875 L 1.757812 -2.15625 C 1.726562 -1.980469 1.710938 -1.804688 1.710938 -1.625 C 1.710938 -1.445312 1.734375 -1.277344 1.785156 -1.125 C 1.832031 -0.96875 1.910156 -0.835938 2.019531 -0.730469 C 2.125 -0.625 2.273438 -0.554688 2.464844 -0.523438 C 2.667969 -0.492188 2.921875 -0.535156 3.222656 -0.648438 C 3.523438 -0.765625 3.839844 -0.929688 4.171875 -1.152344 C 4.507812 -1.371094 4.84375 -1.632812 5.175781 -1.9375 C 5.511719 -2.242188 5.820312 -2.566406 6.101562 -2.90625 C 6.277344 -3.121094 6.429688 -3.332031 6.5625 -3.539062 C 6.695312 -3.75 6.824219 -3.949219 6.945312 -4.140625 C 6.988281 -4.183594 7.042969 -4.210938 7.097656 -4.21875 C 7.15625 -4.226562 7.203125 -4.21875 7.242188 -4.191406 C 7.277344 -4.164062 7.304688 -4.125 7.320312 -4.070312 C 7.335938 -4.019531 7.320312 -3.960938 7.273438 -3.898438 C 7.121094 -3.695312 6.964844 -3.472656 6.800781 -3.234375 C 6.636719 -2.992188 6.457031 -2.75 6.253906 -2.503906 C 6.054688 -2.257812 5.832031 -2.003906 5.59375 -1.75 C 5.355469 -1.496094 5.085938 -1.246094 4.789062 -1.003906 C 4.394531 -0.683594 4.042969 -0.441406 3.734375 -0.273438 C 3.425781 -0.105469 3.15625 0.0117188 2.917969 0.078125 C 2.683594 0.148438 2.484375 0.183594 2.320312 0.1875 C 2.15625 0.191406 2.023438 0.195312 1.914062 0.195312 C 1.597656 0.195312 1.324219 0.140625 1.101562 0.0351562 C 0.875 -0.0703125 0.695312 -0.214844 0.554688 -0.398438 C 0.414062 -0.582031 0.3125 -0.796875 0.25 -1.042969 C 0.191406 -1.289062 0.167969 -1.558594 0.183594 -1.847656 Z M 0.183594 -1.847656 "/></g></g></g></g></svg>