<svg xmlns="http://www.w3.org/2000/svg" xmlns:xlink="http://www.w3.org/1999/xlink" width="563" zoomAndPan="magnify" viewBox="0 0 422.25 409.500001" height="546" preserveAspectRatio="xMidYMid meet" version="1.0"><defs><clipPath id="9f92617d62"><path d="M 84.859375 271 L 335.300781 271 L 335.300781 390.628906 L 84.859375 390.628906 Z M 84.859375 271 " clip-rule="nonzero"/></clipPath><clipPath id="c2e680f6ae"><path d="M 90 18.542969 L 336.535156 18.542969 L 336.535156 257 L 90 257 Z M 90 18.542969 " clip-rule="nonzero"/></clipPath></defs><path fill="#ffffff" d="M 167.171875 194.398438 L 176.007812 194.398438 C 176.5 194.398438 176.90625 194.023438 176.957031 193.53125 C 178.96875 174.140625 195.328125 163.441406 201.214844 160.1875 C 201.578125 159.992188 201.371094 159.433594 200.972656 159.511719 C 176.566406 164.378906 168 187.539062 166.261719 193.164062 C 166.074219 193.78125 166.53125 194.398438 167.171875 194.398438 " fill-opacity="1" fill-rule="nonzero"/><path fill="#ffffff" d="M 87.574219 228.632812 C 87.351562 229.777344 87.152344 230.898438 86.984375 231.996094 L 86.988281 231.996094 C 86.335938 234.625 85.761719 237.289062 85.273438 239.976562 C 116.800781 267.910156 160.421875 268.507812 160.421875 268.507812 C 160.421875 268.507812 110.621094 260.59375 87.574219 228.632812 " fill-opacity="1" fill-rule="nonzero"/><g clip-path="url(#9f92617d62)"><path fill="#ffffff" d="M 241.742188 296.757812 C 238.796875 298.09375 236.003906 299.722656 233.152344 301.25 C 202.597656 317.585938 163.035156 319.152344 163.035156 319.152344 C 163.035156 319.152344 191.105469 313.011719 228.847656 291.183594 C 263.640625 271.054688 296.351562 274.976562 296.351562 274.976562 C 296.351562 274.976562 272.816406 261.351562 227.015625 284.78125 C 182.554688 307.523438 163.035156 320.199219 119.164062 305.035156 C 119.164062 305.035156 97.398438 295.847656 84.859375 283.605469 C 94.707031 344.304688 147.296875 390.648438 210.714844 390.648438 C 271.742188 390.648438 322.746094 347.734375 335.285156 290.410156 C 317.5625 285.585938 280.710938 279.066406 241.742188 296.757812 " fill-opacity="1" fill-rule="nonzero"/></g><g clip-path="url(#c2e680f6ae)"><path fill="#ffffff" d="M 334.449219 231.996094 C 324.0625 164.707031 210.714844 18.542969 210.714844 18.542969 C 210.714844 18.542969 111.636719 146.308594 90.261719 217.925781 C 99.75 228.328125 122.160156 249.433594 153.410156 256.894531 C 152.238281 255.964844 151.117188 254.976562 150.070312 253.910156 C 143.480469 247.195312 139.941406 238.398438 140.105469 229.136719 C 140.269531 219.710938 144.296875 210.921875 151.445312 204.390625 C 152.894531 203.066406 154.445312 201.878906 156.066406 200.808594 C 159.917969 172.496094 184.160156 150.679688 213.5 150.679688 C 242.605469 150.679688 266.691406 172.144531 270.839844 200.117188 C 270.851562 200.179688 270.941406 200.175781 270.941406 200.109375 L 270.941406 147.933594 L 286.90625 147.933594 L 286.90625 229.136719 L 286.898438 229.128906 C 286.898438 229.128906 286.898438 229.132812 286.898438 229.136719 C 287.015625 235.738281 285.242188 242.09375 281.835938 247.636719 C 291.796875 244.945312 313.328125 240.242188 336.535156 242.136719 L 334.449219 231.996094 " fill-opacity="1" fill-rule="nonzero"/></g><path fill="#ffffff" d="M 250.117188 205.507812 L 176.886719 205.507812 C 162.910156 205.507812 151.21875 216.042969 150.980469 229.328125 C 150.742188 242.902344 162.246094 253.976562 176.46875 253.976562 C 186.386719 253.976562 194.96875 248.589844 199.183594 240.726562 C 199.195312 240.707031 199.207031 240.695312 199.210938 240.675781 C 199.65625 239.84375 200.050781 238.992188 200.394531 238.113281 C 200.414062 238.0625 200.433594 238.015625 200.460938 237.972656 C 200.480469 237.9375 200.496094 237.902344 200.515625 237.867188 C 203.355469 232.796875 208.425781 230.261719 213.5 230.261719 C 218.582031 230.261719 223.664062 232.804688 226.503906 237.894531 C 226.523438 237.929688 226.542969 237.964844 226.558594 238 C 226.574219 238.023438 226.589844 238.054688 226.597656 238.082031 C 226.941406 238.972656 227.34375 239.835938 227.792969 240.675781 C 227.796875 240.695312 227.8125 240.707031 227.820312 240.726562 C 232.03125 248.589844 240.621094 253.976562 250.539062 253.976562 C 264.757812 253.976562 276.261719 242.902344 276.019531 229.328125 C 275.789062 216.042969 264.09375 205.507812 250.117188 205.507812 " fill-opacity="1" fill-rule="nonzero"/></svg>